<?xml version="1.0" standalone="no"?> 
<svg width="2000" height="100%" version="1.1" xmlns="http://www.w3.org/2000/svg">
<rect x="13.1057048155974" width="3.09433924476533" y="150" height="145" style="fill:rgb(0,0,255);fill-opacity:0.5;stroke-width:1;stroke:rgb(0,0,0)"/>
<text transform="translate(14.1057048155974,154) rotate(90)" font-size="3pt">cma_init_reserved_areas</text>
<rect x="18.8302975075854" width="9.76597939176672" y="150" height="145" style="fill:rgb(0,255,0);fill-opacity:0.5;stroke-width:1;stroke:rgb(0,0,0)"/>
<text transform="translate(19.8302975075854,154) rotate(90)" font-size="3pt">of_platform_default_populate_init</text>
<rect x="28.8377577280875" width="3.72895867338254" y="150" height="145" style="fill:rgb(255,0,20);fill-opacity:0.5;stroke-width:1;stroke:rgb(0,0,0)"/>
<text transform="translate(29.8377577280875,154) rotate(90)" font-size="3pt">param_sysfs_init</text>
<rect x="37.7862171174509" width="58.0575888967886" y="150" height="145" style="fill:rgb(255,255,20);fill-opacity:0.5;stroke-width:1;stroke:rgb(0,0,0)"/>
<text transform="translate(43.7862171174509,154) rotate(90)">tracer_init_tracefs</text>
<rect x="98.3647096522236" width="33.6400368504852" y="150" height="145" style="fill:rgb(255,0,255);fill-opacity:0.5;stroke-width:1;stroke:rgb(0,0,0)"/>
<text transform="translate(104.364709652224,154) rotate(90)">populate_rootfs</text>
<rect x="134.502218038713" width="20.3332064928952" y="150" height="145" style="fill:rgb(0,255,255);fill-opacity:0.5;stroke-width:1;stroke:rgb(0,0,0)"/>
<text transform="translate(140.502218038713,154) rotate(90)">jent_mod_init</text>
<rect x="156.284309504021" width="7.52365741065262" y="150" height="145" style="fill:rgb(0,128,255);fill-opacity:0.5;stroke-width:1;stroke:rgb(0,0,0)"/>
<text transform="translate(157.284309504021,154) rotate(90)" font-size="3pt">aspeed_pcie_driver_init</text>
<rect x="167.785566225729" width="33.9212220742417" y="150" height="145" style="fill:rgb(0,255,128);fill-opacity:0.5;stroke-width:1;stroke:rgb(0,0,0)"/>
<text transform="translate(173.785566225729,154) rotate(90)">ast_video_driver_init</text>
<rect x="202.959103972442" width="1.70338363558074" y="150" height="145" style="fill:rgb(255,0,128);fill-opacity:0.5;stroke-width:1;stroke:rgb(0,0,0)"/>
<text transform="translate(203.959103972442,154) rotate(90)" font-size="3pt">serial8250_init</text>
<rect x="204.903317545037" width="639.6950822627" y="150" height="145" style="fill:rgb(255,255,128);fill-opacity:0.5;stroke-width:1;stroke:rgb(0,0,0)"/>
<text transform="translate(210.903317545037,154) rotate(90)">ast8250_platform_driver_init</text>
<rect x="850.794238106206" width="7.4559646716001" y="150" height="145" style="fill:rgb(255,128,255);fill-opacity:0.5;stroke-width:1;stroke:rgb(0,0,0)"/>
<text transform="translate(851.794238106206,154) rotate(90)" font-size="3pt">brd_init</text>
<rect x="858.256711695022" width="5.01186625677178" y="150" height="145" style="fill:rgb(128,255,255);fill-opacity:0.5;stroke-width:1;stroke:rgb(0,0,0)"/>
<text transform="translate(859.256711695022,154) rotate(90)" font-size="3pt">loop_init</text>
<rect x="863.275086869011" width="5.36204600302403" y="150" height="145" style="fill:rgb(0,0,255);fill-opacity:0.5;stroke-width:1;stroke:rgb(0,0,0)"/>
<text transform="translate(864.275086869011,154) rotate(90)" font-size="3pt">nbd_init</text>
<rect x="869.544475932027" width="172.943883119874" y="150" height="145" style="fill:rgb(0,255,0);fill-opacity:0.5;stroke-width:1;stroke:rgb(0,0,0)"/>
<text transform="translate(875.544475932027,154) rotate(90)">aspeed_spi_driver_init</text>
<rect x="1042.52155452971" width="5.73826141814288" y="150" height="145" style="fill:rgb(255,0,20);fill-opacity:0.5;stroke-width:1;stroke:rgb(0,0,0)"/>
<text transform="translate(1043.52155452971,154) rotate(90)" font-size="3pt">bonding_init</text>
<rect x="1048.30928371869" width="14.1210959013847" y="150" height="145" style="fill:rgb(255,255,20);fill-opacity:0.5;stroke-width:1;stroke:rgb(0,0,0)"/>
<text transform="translate(1049.30928371869,154) rotate(90)" font-size="3pt">aspeed_mdio_driver_init</text>
<rect x="1063.3474860559" width="3.13534542322986" y="150" height="145" style="fill:rgb(255,0,255);fill-opacity:0.5;stroke-width:1;stroke:rgb(0,0,0)"/>
<text transform="translate(1064.3474860559,154) rotate(90)" font-size="3pt">fixed_mdio_bus_init</text>
<rect x="1067.33810320139" width="307.629652624095" y="150" height="145" style="fill:rgb(0,255,255);fill-opacity:0.5;stroke-width:1;stroke:rgb(0,0,0)"/>
<text transform="translate(1073.33810320139,154) rotate(90)">ftgmac100_driver_init</text>
<rect x="1384.3445019677" width="8.59046894245125" y="150" height="145" style="fill:rgb(0,128,255);fill-opacity:0.5;stroke-width:1;stroke:rgb(0,0,0)"/>
<text transform="translate(1385.3445019677,154) rotate(90)" font-size="3pt">e1000_init_module</text>
<rect x="1392.93887626048" width="9.14047244725271" y="150" height="145" style="fill:rgb(0,255,128);fill-opacity:0.5;stroke-width:1;stroke:rgb(0,0,0)"/>
<text transform="translate(1393.93887626048,154) rotate(90)" font-size="3pt">igb_init_module</text>
<rect x="1402.08390494978" width="4.77233810320126" y="150" height="145" style="fill:rgb(255,0,128);fill-opacity:0.5;stroke-width:1;stroke:rgb(0,0,0)"/>
<text transform="translate(1403.08390494978,154) rotate(90)" font-size="3pt">ehci_hcd_init</text>
<rect x="1406.86079929503" width="3.26226930895314" y="150" height="145" style="fill:rgb(255,255,128);fill-opacity:0.5;stroke-width:1;stroke:rgb(0,0,0)"/>
<text transform="translate(1407.86079929503,154) rotate(90)" font-size="3pt">ehci_pci_init</text>
<rect x="1410.12697395432" width="73.2422418713638" y="150" height="145" style="fill:rgb(255,128,255);fill-opacity:0.5;stroke-width:1;stroke:rgb(0,0,0)"/>
<text transform="translate(1416.12697395432,154) rotate(90)">ehci_platform_init</text>
<rect x="1483.37507385118" width="65.9821956079829" y="150" height="145" style="fill:rgb(128,255,255);fill-opacity:0.5;stroke-width:1;stroke:rgb(0,0,0)"/>
<text transform="translate(1489.37507385118,154) rotate(90)">uhci_hcd_init</text>
<rect x="1549.36377837638" width="4.42085657350549" y="150" height="145" style="fill:rgb(0,0,255);fill-opacity:0.5;stroke-width:1;stroke:rgb(0,0,0)"/>
<text transform="translate(1550.36377837638,154) rotate(90)" font-size="3pt">usb_storage_driver_init</text>
<rect x="1553.86599641509" width="13.1291369175774" y="150" height="145" style="fill:rgb(0,255,0);fill-opacity:0.5;stroke-width:1;stroke:rgb(0,0,0)"/>
<text transform="translate(1554.86599641509,154) rotate(90)" font-size="3pt">ast_vhub_driver_init</text>
<rect x="1567.23856683657" width="4.26919880235914" y="150" height="145" style="fill:rgb(255,0,20);fill-opacity:0.5;stroke-width:1;stroke:rgb(0,0,0)"/>
<text transform="translate(1568.23856683657,154) rotate(90)" font-size="3pt">aspeed_rtc_driver_init</text>
<rect x="1571.58391997036" width="2.58469102670642" y="150" height="145" style="fill:rgb(255,255,20);fill-opacity:0.5;stroke-width:1;stroke:rgb(0,0,0)"/>
<text transform="translate(1572.58391997036,154) rotate(90)" font-size="3pt">i2c_dev_init</text>
<rect x="1574.17446902256" width="47.2384666993783" y="150" height="145" style="fill:rgb(255,0,255);fill-opacity:0.5;stroke-width:1;stroke:rgb(0,0,0)"/>
<text transform="translate(1580.17446902256,154) rotate(90)">aspeed_new_i2c_bus_driver_init</text>
<rect x="1621.60755234672" width="23.7686129998096" y="150" height="145" style="fill:rgb(0,255,255);fill-opacity:0.5;stroke-width:1;stroke:rgb(0,0,0)"/>
<text transform="translate(1627.60755234672,154) rotate(90)">dw_i3c_driver_init</text>
<rect x="1645.60853369116" width="3.77842644422867" y="150" height="145" style="fill:rgb(0,128,255);fill-opacity:0.5;stroke-width:1;stroke:rgb(0,0,0)"/>
<text transform="translate(1646.60853369116,154) rotate(90)" font-size="3pt">w1_init</text>
<rect x="1649.53015631415" width="24.6004526200895" y="150" height="145" style="fill:rgb(0,255,128);fill-opacity:0.5;stroke-width:1;stroke:rgb(0,0,0)"/>
<text transform="translate(1655.53015631415,154) rotate(90)">adt7475_driver_init</text>
<rect x="1674.28552116399" width="6.9703994472427" y="150" height="145" style="fill:rgb(255,0,128);fill-opacity:0.5;stroke-width:1;stroke:rgb(0,0,0)"/>
<text transform="translate(1675.28552116399,154) rotate(90)" font-size="3pt">aspeed_pwm_tachometer_driver_init</text>
<rect x="1681.47852558004" width="3.8344031322913" y="150" height="145" style="fill:rgb(255,255,128);fill-opacity:0.5;stroke-width:1;stroke:rgb(0,0,0)"/>
<text transform="translate(1682.47852558004,154) rotate(90)" font-size="3pt">lm75_driver_init</text>
<rect x="1685.82257693039" width="6.35660855371862" y="150" height="145" style="fill:rgb(255,128,255);fill-opacity:0.5;stroke-width:1;stroke:rgb(0,0,0)"/>
<text transform="translate(1686.82257693039,154) rotate(90)" font-size="3pt">dm_init</text>
<rect x="1692.31912720427" width="15.4033525930524" y="150" height="145" style="fill:rgb(128,255,255);fill-opacity:0.5;stroke-width:1;stroke:rgb(0,0,0)"/>
<text transform="translate(1693.31912720427,154) rotate(90)" font-size="3pt">aspeed_init</text>
<rect x="1707.94508476613" width="7.66425002253095" y="150" height="145" style="fill:rgb(0,0,255);fill-opacity:0.5;stroke-width:1;stroke:rgb(0,0,0)"/>
<text transform="translate(1708.94508476613,154) rotate(90)" font-size="3pt">sdhci_drv_init</text>
<rect x="1715.61389103071" width="4.11623924776927" y="150" height="145" style="fill:rgb(0,255,0);fill-opacity:0.5;stroke-width:1;stroke:rgb(0,0,0)"/>
<text transform="translate(1716.61389103071,154) rotate(90)" font-size="3pt">sdhci_pltfm_drv_init</text>
<rect x="1719.73468652053" width="96.988724552637" y="150" height="145" style="fill:rgb(255,0,20);fill-opacity:0.5;stroke-width:1;stroke:rgb(0,0,0)"/>
<text transform="translate(1725.73468652053,154) rotate(90)">aspeed_sdc_init</text>
<rect x="1816.94992139231" width="13.1681904208767" y="150" height="145" style="fill:rgb(255,255,20);fill-opacity:0.5;stroke-width:1;stroke:rgb(0,0,0)"/>
<text transform="translate(1817.94992139231,154) rotate(90)" font-size="3pt">aspeed_hace_driver_init</text>
<rect x="1830.1246207304" width="11.3587114346656" y="150" height="145" style="fill:rgb(255,0,255);fill-opacity:0.5;stroke-width:1;stroke:rgb(0,0,0)"/>
<text transform="translate(1831.1246207304,154) rotate(90)" font-size="3pt">aspeed_acry_driver_init</text>
<rect x="1841.58812573225" width="6.91572454262314" y="150" height="145" style="fill:rgb(0,255,255);fill-opacity:0.5;stroke-width:1;stroke:rgb(0,0,0)"/>
<text transform="translate(1842.58812573225,154) rotate(90)" font-size="3pt">hid_init</text>
<rect x="1848.51035919209" width="4.01209657230424" y="150" height="145" style="fill:rgb(0,128,255);fill-opacity:0.5;stroke-width:1;stroke:rgb(0,0,0)"/>
<text transform="translate(1849.51035919209,154) rotate(90)" font-size="3pt">aspeed_adc_driver_init</text>
<rect x="1853.14210468342" width="17.7218289056009" y="150" height="145" style="fill:rgb(0,255,128);fill-opacity:0.5;stroke-width:1;stroke:rgb(0,0,0)"/>
<text transform="translate(1859.14210468342,154) rotate(90)">aspeed_peci_driver_init</text>
<rect x="1871.97435486617" width="33.3568989515636" y="150" height="145" style="fill:rgb(255,0,128);fill-opacity:0.5;stroke-width:1;stroke:rgb(0,0,0)"/>
<text transform="translate(1877.97435486617,154) rotate(90)">inet6_init</text>
<rect x="1905.784274456" width="4.82506033265577" y="150" height="145" style="fill:rgb(255,255,128);fill-opacity:0.5;stroke-width:1;stroke:rgb(0,0,0)"/>
<text transform="translate(1906.784274456,154) rotate(90)" font-size="3pt">ip6table_mangle_init</text>
<rect x="1910.69395071248" width="4.75476402671666" y="150" height="145" style="fill:rgb(255,128,255);fill-opacity:0.5;stroke-width:1;stroke:rgb(0,0,0)"/>
<text transform="translate(1911.69395071248,154) rotate(90)" font-size="3pt">sit_init</text>
<rect x="1915.45587454813" width="3.25576039173689" y="150" height="145" style="fill:rgb(128,255,255);fill-opacity:0.5;stroke-width:1;stroke:rgb(0,0,0)"/>
<text transform="translate(1916.45587454813,154) rotate(90)" font-size="3pt">packet_init</text>
<rect x="1918.72660544947" width="3.09564102820855" y="150" height="145" style="fill:rgb(0,0,255);fill-opacity:0.5;stroke-width:1;stroke:rgb(0,0,0)"/>
<text transform="translate(1919.72660544947,154) rotate(90)" font-size="3pt">vlan_proto_init</text>
<rect x="1921.91467310215" width="3.50505192113178" y="150" height="145" style="fill:rgb(0,255,0);fill-opacity:0.5;stroke-width:1;stroke:rgb(0,0,0)"/>
<text transform="translate(1922.91467310215,154) rotate(90)" font-size="3pt">swp_emulation_init</text>
<rect x="1925.71392808147" width="3.03445720637251" y="150" height="145" style="fill:rgb(255,0,20);fill-opacity:0.5;stroke-width:1;stroke:rgb(0,0,0)"/>
<text transform="translate(1926.71392808147,154) rotate(90)" font-size="3pt">check_early_ioremap_leak</text>
<rect x="1929.68371669187" width="3.50960816318366" y="150" height="145" style="fill:rgb(255,255,20);fill-opacity:0.5;stroke-width:1;stroke:rgb(0,0,0)"/>
<text transform="translate(1930.68371669187,154) rotate(90)" font-size="3pt">clk_debug_init</text>
<rect x="1933.97244224588" width="6.51672791724673" y="150" height="145" style="fill:rgb(255,0,255);fill-opacity:0.5;stroke-width:1;stroke:rgb(0,0,0)"/>
<text transform="translate(1934.97244224588,154) rotate(90)" font-size="3pt">init_netconsole</text>
<rect x="1940.6597037942" width="5.34642460170426" y="150" height="145" style="fill:rgb(0,255,255);fill-opacity:0.5;stroke-width:1;stroke:rgb(0,0,0)"/>
<text transform="translate(1941.6597037942,154) rotate(90)" font-size="3pt">rtc_hctosys</text>
<text transform="translate(0,89) rotate(0)" font-size="20pt">0</text>
<text transform="translate(130,89) rotate(0)" font-size="20pt">0.2</text>
<text transform="translate(260,89) rotate(0)" font-size="20pt">0.4</text>
<text transform="translate(390,89) rotate(0)" font-size="20pt">0.59</text>
<text transform="translate(520,89) rotate(0)" font-size="20pt">0.79</text>
<text transform="translate(650,89) rotate(0)" font-size="20pt">0.99</text>
<text transform="translate(780,89) rotate(0)" font-size="20pt">1.19</text>
<text transform="translate(910,89) rotate(0)" font-size="20pt">1.39</text>
<text transform="translate(1040,89) rotate(0)" font-size="20pt">1.59</text>
<text transform="translate(1170,89) rotate(0)" font-size="20pt">1.79</text>
<text transform="translate(1300,89) rotate(0)" font-size="20pt">1.99</text>
<text transform="translate(1430,89) rotate(0)" font-size="20pt">2.19</text>
<text transform="translate(1560,89) rotate(0)" font-size="20pt">2.39</text>
<text transform="translate(1690,89) rotate(0)" font-size="20pt">2.59</text>
<text transform="translate(1820,89) rotate(0)" font-size="20pt">2.79</text>
</svg>
