<?xml version="1.0" standalone="no"?> 
<svg width="4525.291845" height="1000" version="1.1" xmlns="http://www.w3.org/2000/svg">
<rect x="30.2025" width="7.131" y="150" height="325" style="fill:rgb(0,0,255);fill-opacity:0.5;stroke-width:1;stroke:rgb(0,0,0)"/>
<rect x="43.395" width="22.506" y="150" height="325" style="fill:rgb(0,255,0);fill-opacity:0.5;stroke-width:1;stroke:rgb(0,0,0)"/>
<text transform="translate(44.395,154) rotate(90)" font-size="18pt">of_platform_default_populate_init</text>
<rect x="66.4575" width="8.59349999999999" y="150" height="325" style="fill:rgb(255,0,20);fill-opacity:0.5;stroke-width:1;stroke:rgb(0,0,0)"/>
<text transform="translate(67.4575,154) rotate(90)" font-size="18pt">param_sysfs_init</text>
<rect x="87.0795" width="133.7955" y="150" height="325" style="fill:rgb(255,255,20);fill-opacity:0.5;stroke-width:1;stroke:rgb(0,0,0)"/>
<text transform="translate(93.0795,154) rotate(90)" font-size="30pt">tracer_init_tracefs</text>
<rect x="226.6845" width="77.5245" y="150" height="325" style="fill:rgb(255,0,255);fill-opacity:0.5;stroke-width:1;stroke:rgb(0,0,0)"/>
<text transform="translate(232.6845,154) rotate(90)" font-size="30pt">populate_rootfs</text>
<rect x="309.9645" width="46.8585" y="150" height="325" style="fill:rgb(0,255,255);fill-opacity:0.5;stroke-width:1;stroke:rgb(0,0,0)"/>
<text transform="translate(315.9645,154) rotate(90)" font-size="30pt">jent_mod_init</text>
<rect x="360.162" width="17.3385" y="150" height="325" style="fill:rgb(0,128,255);fill-opacity:0.5;stroke-width:1;stroke:rgb(0,0,0)"/>
<text transform="translate(361.162,154) rotate(90)" font-size="18pt">aspeed_pcie_driver_init</text>
<rect x="386.667" width="78.1725" y="150" height="325" style="fill:rgb(0,255,128);fill-opacity:0.5;stroke-width:1;stroke:rgb(0,0,0)"/>
<text transform="translate(392.667,154) rotate(90)" font-size="30pt">ast_video_driver_init</text>
<rect x="467.7255" width="3.9255" y="150" height="325" style="fill:rgb(255,0,128);fill-opacity:0.5;stroke-width:1;stroke:rgb(0,0,0)"/>
<rect x="472.206" width="1474.197" y="150" height="325" style="fill:rgb(255,255,128);fill-opacity:0.5;stroke-width:1;stroke:rgb(0,0,0)"/>
<text transform="translate(478.206,154) rotate(90)" font-size="30pt">ast8250_platform_driver_init</text>
<rect x="1960.6815" width="17.1825000000001" y="150" height="325" style="fill:rgb(255,128,255);fill-opacity:0.5;stroke-width:1;stroke:rgb(0,0,0)"/>
<text transform="translate(1961.6815,154) rotate(90)" font-size="18pt">brd_init</text>
<rect x="1977.879" width="11.55" y="150" height="325" style="fill:rgb(128,255,255);fill-opacity:0.5;stroke-width:1;stroke:rgb(0,0,0)"/>
<text transform="translate(1978.879,154) rotate(90)" font-size="18pt">loop_init</text>
<rect x="1989.444" width="12.357" y="150" height="325" style="fill:rgb(0,0,255);fill-opacity:0.5;stroke-width:1;stroke:rgb(0,0,0)"/>
<text transform="translate(1990.444,154) rotate(90)" font-size="18pt">nbd_init</text>
<rect x="2003.892" width="398.5545" y="150" height="325" style="fill:rgb(0,255,0);fill-opacity:0.5;stroke-width:1;stroke:rgb(0,0,0)"/>
<text transform="translate(2009.892,154) rotate(90)" font-size="30pt">aspeed_spi_driver_init</text>
<rect x="2402.523" width="13.2239999999997" y="150" height="325" style="fill:rgb(255,0,20);fill-opacity:0.5;stroke-width:1;stroke:rgb(0,0,0)"/>
<text transform="translate(2403.523,154) rotate(90)" font-size="18pt">bonding_init</text>
<rect x="2415.861" width="32.5424999999996" y="150" height="325" style="fill:rgb(255,255,20);fill-opacity:0.5;stroke-width:1;stroke:rgb(0,0,0)"/>
<text transform="translate(2421.861,154) rotate(90)" font-size="30pt">aspeed_mdio_driver_init</text>
<rect x="2450.517" width="7.22550000000001" y="150" height="325" style="fill:rgb(255,0,255);fill-opacity:0.5;stroke-width:1;stroke:rgb(0,0,0)"/>
<rect x="2459.7135" width="708.942" y="150" height="325" style="fill:rgb(0,255,255);fill-opacity:0.5;stroke-width:1;stroke:rgb(0,0,0)"/>
<text transform="translate(2465.7135,154) rotate(90)" font-size="30pt">ftgmac100_driver_init</text>
<rect x="3190.2645" width="19.797" y="150" height="325" style="fill:rgb(0,128,255);fill-opacity:0.5;stroke-width:1;stroke:rgb(0,0,0)"/>
<text transform="translate(3191.2645,154) rotate(90)" font-size="18pt">e1000_init_module</text>
<rect x="3210.0705" width="21.0645" y="150" height="325" style="fill:rgb(0,255,128);fill-opacity:0.5;stroke-width:1;stroke:rgb(0,0,0)"/>
<text transform="translate(3211.0705,154) rotate(90)" font-size="18pt">igb_init_module</text>
<rect x="3231.1455" width="10.998" y="150" height="325" style="fill:rgb(255,0,128);fill-opacity:0.5;stroke-width:1;stroke:rgb(0,0,0)"/>
<text transform="translate(3232.1455,154) rotate(90)" font-size="18pt">ehci_hcd_init</text>
<rect x="3242.154" width="7.51800000000003" y="150" height="325" style="fill:rgb(255,255,128);fill-opacity:0.5;stroke-width:1;stroke:rgb(0,0,0)"/>
<text transform="translate(3243.154,154) rotate(90)" font-size="18pt">ehci_pci_init</text>
<rect x="3249.681" width="168.789" y="150" height="325" style="fill:rgb(255,128,255);fill-opacity:0.5;stroke-width:1;stroke:rgb(0,0,0)"/>
<text transform="translate(3255.681,154) rotate(90)" font-size="30pt">ehci_platform_init</text>
<rect x="3418.4835" width="152.058" y="150" height="325" style="fill:rgb(128,255,255);fill-opacity:0.5;stroke-width:1;stroke:rgb(0,0,0)"/>
<text transform="translate(3424.4835,154) rotate(90)" font-size="30pt">uhci_hcd_init</text>
<rect x="3570.5565" width="10.1880000000001" y="150" height="325" style="fill:rgb(0,0,255);fill-opacity:0.5;stroke-width:1;stroke:rgb(0,0,0)"/>
<text transform="translate(3571.5565,154) rotate(90)" font-size="18pt">usb_storage_driver_init</text>
<rect x="3580.932" width="30.2565000000004" y="150" height="325" style="fill:rgb(0,255,0);fill-opacity:0.5;stroke-width:1;stroke:rgb(0,0,0)"/>
<text transform="translate(3586.932,154) rotate(90)" font-size="30pt">ast_vhub_driver_init</text>
<rect x="3611.7495" width="9.83849999999939" y="150" height="325" style="fill:rgb(255,0,20);fill-opacity:0.5;stroke-width:1;stroke:rgb(0,0,0)"/>
<text transform="translate(3612.7495,154) rotate(90)" font-size="18pt">aspeed_rtc_driver_init</text>
<rect x="3621.7635" width="5.95649999999978" y="150" height="325" style="fill:rgb(255,255,20);fill-opacity:0.5;stroke-width:1;stroke:rgb(0,0,0)"/>
<rect x="3627.7335" width="108.8625" y="150" height="325" style="fill:rgb(255,0,255);fill-opacity:0.5;stroke-width:1;stroke:rgb(0,0,0)"/>
<text transform="translate(3633.7335,154) rotate(90)" font-size="30pt">aspeed_new_i2c_bus_driver_init</text>
<rect x="3737.0445" width="54.7754999999997" y="150" height="325" style="fill:rgb(0,255,255);fill-opacity:0.5;stroke-width:1;stroke:rgb(0,0,0)"/>
<text transform="translate(3743.0445,154) rotate(90)" font-size="30pt">dw_i3c_driver_init</text>
<rect x="3792.3555" width="8.70749999999998" y="150" height="325" style="fill:rgb(0,128,255);fill-opacity:0.5;stroke-width:1;stroke:rgb(0,0,0)"/>
<text transform="translate(3793.3555,154) rotate(90)" font-size="18pt">w1_init</text>
<rect x="3801.393" width="56.6925000000001" y="150" height="325" style="fill:rgb(0,255,128);fill-opacity:0.5;stroke-width:1;stroke:rgb(0,0,0)"/>
<text transform="translate(3807.393,154) rotate(90)" font-size="30pt">adt7475_driver_init</text>
<rect x="3858.4425" width="16.0634999999997" y="150" height="325" style="fill:rgb(255,0,128);fill-opacity:0.5;stroke-width:1;stroke:rgb(0,0,0)"/>
<text transform="translate(3859.4425,154) rotate(90)" font-size="18pt">aspeed_pwm_tachometer_driver_init</text>
<rect x="3875.019" width="8.83650000000034" y="150" height="325" style="fill:rgb(255,255,128);fill-opacity:0.5;stroke-width:1;stroke:rgb(0,0,0)"/>
<text transform="translate(3876.019,154) rotate(90)" font-size="18pt">lm75_driver_init</text>
<rect x="3885.03" width="14.6489999999999" y="150" height="325" style="fill:rgb(255,128,255);fill-opacity:0.5;stroke-width:1;stroke:rgb(0,0,0)"/>
<text transform="translate(3886.03,154) rotate(90)" font-size="18pt">dm_init</text>
<rect x="3900.0015" width="35.4974999999999" y="150" height="325" style="fill:rgb(128,255,255);fill-opacity:0.5;stroke-width:1;stroke:rgb(0,0,0)"/>
<text transform="translate(3906.0015,154) rotate(90)" font-size="30pt">aspeed_init</text>
<rect x="3936.012" width="17.6625000000004" y="150" height="325" style="fill:rgb(0,0,255);fill-opacity:0.5;stroke-width:1;stroke:rgb(0,0,0)"/>
<text transform="translate(3937.012,154) rotate(90)" font-size="18pt">sdhci_drv_init</text>
<rect x="3953.685" width="9.48599999999988" y="150" height="325" style="fill:rgb(0,255,0);fill-opacity:0.5;stroke-width:1;stroke:rgb(0,0,0)"/>
<text transform="translate(3954.685,154) rotate(90)" font-size="18pt">sdhci_pltfm_drv_init</text>
<rect x="3963.1815" width="223.5135" y="150" height="325" style="fill:rgb(255,0,20);fill-opacity:0.5;stroke-width:1;stroke:rgb(0,0,0)"/>
<text transform="translate(3969.1815,154) rotate(90)" font-size="30pt">aspeed_sdc_init</text>
<rect x="4187.217" width="30.3464999999997" y="150" height="325" style="fill:rgb(255,255,20);fill-opacity:0.5;stroke-width:1;stroke:rgb(0,0,0)"/>
<text transform="translate(4193.217,154) rotate(90)" font-size="30pt">aspeed_hace_driver_init</text>
<rect x="4217.5785" width="26.1764999999996" y="150" height="325" style="fill:rgb(255,0,255);fill-opacity:0.5;stroke-width:1;stroke:rgb(0,0,0)"/>
<text transform="translate(4218.5785,154) rotate(90)" font-size="18pt">aspeed_acry_driver_init</text>
<rect x="4243.9965" width="15.9375" y="150" height="325" style="fill:rgb(0,255,255);fill-opacity:0.5;stroke-width:1;stroke:rgb(0,0,0)"/>
<text transform="translate(4244.9965,154) rotate(90)" font-size="18pt">hid_init</text>
<rect x="4259.949" width="9.24600000000009" y="150" height="325" style="fill:rgb(0,128,255);fill-opacity:0.5;stroke-width:1;stroke:rgb(0,0,0)"/>
<text transform="translate(4260.949,154) rotate(90)" font-size="18pt">aspeed_adc_driver_init</text>
<rect x="4270.623" width="40.8405000000012" y="150" height="325" style="fill:rgb(0,255,128);fill-opacity:0.5;stroke-width:1;stroke:rgb(0,0,0)"/>
<text transform="translate(4276.623,154) rotate(90)" font-size="30pt">aspeed_peci_driver_init</text>
<rect x="4314.0225" width="76.8720000000003" y="150" height="325" style="fill:rgb(255,0,128);fill-opacity:0.5;stroke-width:1;stroke:rgb(0,0,0)"/>
<text transform="translate(4320.0225,154) rotate(90)" font-size="30pt">inet6_init</text>
<rect x="4391.9385" width="11.1194999999998" y="150" height="325" style="fill:rgb(255,255,128);fill-opacity:0.5;stroke-width:1;stroke:rgb(0,0,0)"/>
<text transform="translate(4392.9385,154) rotate(90)" font-size="18pt">ip6table_mangle_init</text>
<rect x="4403.253" width="10.9575000000004" y="150" height="325" style="fill:rgb(255,128,255);fill-opacity:0.5;stroke-width:1;stroke:rgb(0,0,0)"/>
<text transform="translate(4404.253,154) rotate(90)" font-size="18pt">sit_init</text>
<rect x="4414.227" width="7.50300000000061" y="150" height="325" style="fill:rgb(128,255,255);fill-opacity:0.5;stroke-width:1;stroke:rgb(0,0,0)"/>
<text transform="translate(4415.227,154) rotate(90)" font-size="18pt">packet_init</text>
<rect x="4421.7645" width="7.13400000000001" y="150" height="325" style="fill:rgb(0,0,255);fill-opacity:0.5;stroke-width:1;stroke:rgb(0,0,0)"/>
<rect x="4429.1115" width="8.07750000000033" y="150" height="325" style="fill:rgb(0,255,0);fill-opacity:0.5;stroke-width:1;stroke:rgb(0,0,0)"/>
<text transform="translate(4430.1115,154) rotate(90)" font-size="18pt">swp_emulation_init</text>
<rect x="4437.867" width="6.99299999999948" y="150" height="325" style="fill:rgb(255,0,20);fill-opacity:0.5;stroke-width:1;stroke:rgb(0,0,0)"/>
<rect x="4447.0155" width="8.08799999999974" y="150" height="325" style="fill:rgb(255,255,20);fill-opacity:0.5;stroke-width:1;stroke:rgb(0,0,0)"/>
<text transform="translate(4448.0155,154) rotate(90)" font-size="18pt">clk_debug_init</text>
<rect x="4456.899" width="15.018" y="150" height="325" style="fill:rgb(255,0,255);fill-opacity:0.5;stroke-width:1;stroke:rgb(0,0,0)"/>
<text transform="translate(4457.899,154) rotate(90)" font-size="18pt">init_netconsole</text>
<rect x="4472.31" width="12.3210000000008" y="150" height="325" style="fill:rgb(0,255,255);fill-opacity:0.5;stroke-width:1;stroke:rgb(0,0,0)"/>
<text transform="translate(4473.31,154) rotate(90)" font-size="18pt">rtc_hctosys</text>
<text transform="translate(0,89) rotate(0)" font-size="30pt">0</text>
<text transform="translate(150,89) rotate(0)" font-size="30pt">0.1</text>
<text transform="translate(300,89) rotate(0)" font-size="30pt">0.2</text>
<text transform="translate(450,89) rotate(0)" font-size="30pt">0.3</text>
<text transform="translate(600,89) rotate(0)" font-size="30pt">0.4</text>
<text transform="translate(750,89) rotate(0)" font-size="30pt">0.5</text>
<text transform="translate(900,89) rotate(0)" font-size="30pt">0.6</text>
<text transform="translate(1050,89) rotate(0)" font-size="30pt">0.7</text>
<text transform="translate(1200,89) rotate(0)" font-size="30pt">0.8</text>
<text transform="translate(1350,89) rotate(0)" font-size="30pt">0.9</text>
<text transform="translate(1500,89) rotate(0)" font-size="30pt">1</text>
<text transform="translate(1650,89) rotate(0)" font-size="30pt">1.1</text>
<text transform="translate(1800,89) rotate(0)" font-size="30pt">1.2</text>
<text transform="translate(1950,89) rotate(0)" font-size="30pt">1.3</text>
<text transform="translate(2100,89) rotate(0)" font-size="30pt">1.4</text>
<text transform="translate(2250,89) rotate(0)" font-size="30pt">1.5</text>
<text transform="translate(2400,89) rotate(0)" font-size="30pt">1.6</text>
<text transform="translate(2550,89) rotate(0)" font-size="30pt">1.7</text>
<text transform="translate(2700,89) rotate(0)" font-size="30pt">1.8</text>
<text transform="translate(2850,89) rotate(0)" font-size="30pt">1.9</text>
<text transform="translate(3000,89) rotate(0)" font-size="30pt">2</text>
<text transform="translate(3150,89) rotate(0)" font-size="30pt">2.1</text>
<text transform="translate(3300,89) rotate(0)" font-size="30pt">2.2</text>
<text transform="translate(3450,89) rotate(0)" font-size="30pt">2.3</text>
<text transform="translate(3600,89) rotate(0)" font-size="30pt">2.4</text>
<text transform="translate(3750,89) rotate(0)" font-size="30pt">2.5</text>
<text transform="translate(3900,89) rotate(0)" font-size="30pt">2.6</text>
<text transform="translate(4050,89) rotate(0)" font-size="30pt">2.7</text>
<text transform="translate(4200,89) rotate(0)" font-size="30pt">2.8</text>
<text transform="translate(4350,89) rotate(0)" font-size="30pt">2.9</text>
</svg>
