<?xml version="1.0" standalone="no"?> 
<svg width="2798.237502" height="1000" version="1.1" xmlns="http://www.w3.org/2000/svg">
<rect x="26.4435" width="30.6435" y="150" height="325" style="fill:rgb(0,0,255);fill-opacity:0.5;stroke-width:1;stroke:rgb(0,0,0)"/>
<text transform="translate(32.4435,154) rotate(90)" font-size="30pt">of_platform_default_populate_init</text>
<rect x="57.7575" width="7.09200000000001" y="150" height="325" style="fill:rgb(0,255,0);fill-opacity:0.5;stroke-width:1;stroke:rgb(0,0,0)"/>
<rect x="72.981" width="48.3825" y="150" height="325" style="fill:rgb(255,0,20);fill-opacity:0.5;stroke-width:1;stroke:rgb(0,0,0)"/>
<text transform="translate(78.981,154) rotate(90)" font-size="30pt">tracer_init_tracefs</text>
<rect x="126.1815" width="580.3875" y="150" height="325" style="fill:rgb(255,255,20);fill-opacity:0.5;stroke-width:1;stroke:rgb(0,0,0)"/>
<text transform="translate(132.1815,154) rotate(90)" font-size="30pt">populate_rootfs</text>
<rect x="709.5825" width="3.66300000000001" y="150" height="325" style="fill:rgb(255,0,255);fill-opacity:0.5;stroke-width:1;stroke:rgb(0,0,0)"/>
<rect x="725.0115" width="933.207" y="150" height="325" style="fill:rgb(0,255,255);fill-opacity:0.5;stroke-width:1;stroke:rgb(0,0,0)"/>
<text transform="translate(731.0115,154) rotate(90)" font-size="30pt">dw8250_platform_driver_init</text>
<rect x="1659.0675" width="11.8185000000001" y="150" height="325" style="fill:rgb(0,128,255);fill-opacity:0.5;stroke-width:1;stroke:rgb(0,0,0)"/>
<text transform="translate(1660.0675,154) rotate(90)" font-size="18pt">timeriomem_rng_driver_init</text>
<rect x="1677.081" width="14.5320000000002" y="150" height="325" style="fill:rgb(0,255,128);fill-opacity:0.5;stroke-width:1;stroke:rgb(0,0,0)"/>
<text transform="translate(1678.081,154) rotate(90)" font-size="18pt">loop_init</text>
<rect x="1691.6325" width="18.1935000000001" y="150" height="325" style="fill:rgb(255,0,128);fill-opacity:0.5;stroke-width:1;stroke:rgb(0,0,0)"/>
<text transform="translate(1692.6325,154) rotate(90)" font-size="18pt">nbd_init</text>
<rect x="1710.543" width="316.9665" y="150" height="325" style="fill:rgb(255,255,128);fill-opacity:0.5;stroke-width:1;stroke:rgb(0,0,0)"/>
<text transform="translate(1716.543,154) rotate(90)" font-size="30pt">aspeed_smc_driver_init</text>
<rect x="2028.2985" width="7.53300000000013" y="150" height="325" style="fill:rgb(255,128,255);fill-opacity:0.5;stroke-width:1;stroke:rgb(0,0,0)"/>
<text transform="translate(2029.2985,154) rotate(90)" font-size="18pt">fixed_mdio_bus_init</text>
<rect x="2036.2515" width="36.3299999999999" y="150" height="325" style="fill:rgb(128,255,255);fill-opacity:0.5;stroke-width:1;stroke:rgb(0,0,0)"/>
<text transform="translate(2042.2515,154) rotate(90)" font-size="30pt">aspeed_mdio_driver_init</text>
<rect x="2072.6055" width="218.739" y="150" height="325" style="fill:rgb(0,0,255);fill-opacity:0.5;stroke-width:1;stroke:rgb(0,0,0)"/>
<text transform="translate(2078.6055,154) rotate(90)" font-size="30pt">ftgmac100_driver_init</text>
<rect x="2291.3685" width="11.0549999999998" y="150" height="325" style="fill:rgb(0,255,0);fill-opacity:0.5;stroke-width:1;stroke:rgb(0,0,0)"/>
<text transform="translate(2292.3685,154) rotate(90)" font-size="18pt">ehci_hcd_init</text>
<rect x="2302.44" width="9.05100000000039" y="150" height="325" style="fill:rgb(255,0,20);fill-opacity:0.5;stroke-width:1;stroke:rgb(0,0,0)"/>
<text transform="translate(2303.44,154) rotate(90)" font-size="18pt">ehci_platform_init</text>
<rect x="2311.5105" width="10.1175000000003" y="150" height="325" style="fill:rgb(255,255,20);fill-opacity:0.5;stroke-width:1;stroke:rgb(0,0,0)"/>
<text transform="translate(2312.5105,154) rotate(90)" font-size="18pt">usb_storage_driver_init</text>
<rect x="2322.4875" width="21.9075000000003" y="150" height="325" style="fill:rgb(255,0,255);fill-opacity:0.5;stroke-width:1;stroke:rgb(0,0,0)"/>
<text transform="translate(2323.4875,154) rotate(90)" font-size="18pt">aspeed_rtc_driver_init</text>
<rect x="2344.6035" width="5.88149999999951" y="150" height="325" style="fill:rgb(0,255,255);fill-opacity:0.5;stroke-width:1;stroke:rgb(0,0,0)"/>
<rect x="2350.4985" width="174.381" y="150" height="325" style="fill:rgb(0,128,255);fill-opacity:0.5;stroke-width:1;stroke:rgb(0,0,0)"/>
<text transform="translate(2356.4985,154) rotate(90)" font-size="30pt">aspeed_i2c_bus_driver_init</text>
<rect x="2525.592" width="8.84100000000035" y="150" height="325" style="fill:rgb(0,255,128);fill-opacity:0.5;stroke-width:1;stroke:rgb(0,0,0)"/>
<text transform="translate(2526.592,154) rotate(90)" font-size="18pt">w1_init</text>
<rect x="2536.1805" width="14.79" y="150" height="325" style="fill:rgb(255,0,128);fill-opacity:0.5;stroke-width:1;stroke:rgb(0,0,0)"/>
<text transform="translate(2537.1805,154) rotate(90)" font-size="18pt">dm_init</text>
<rect x="2551.3125" width="23.3715000000002" y="150" height="325" style="fill:rgb(255,255,128);fill-opacity:0.5;stroke-width:1;stroke:rgb(0,0,0)"/>
<text transform="translate(2552.3125,154) rotate(90)" font-size="18pt">aspeed_driver_init</text>
<rect x="2575.101" width="17.721" y="150" height="325" style="fill:rgb(255,128,255);fill-opacity:0.5;stroke-width:1;stroke:rgb(0,0,0)"/>
<text transform="translate(2576.101,154) rotate(90)" font-size="18pt">sdhci_drv_init</text>
<rect x="2592.8355" width="9.52649999999994" y="150" height="325" style="fill:rgb(128,255,255);fill-opacity:0.5;stroke-width:1;stroke:rgb(0,0,0)"/>
<text transform="translate(2593.8355,154) rotate(90)" font-size="18pt">sdhci_pltfm_drv_init</text>
<rect x="2603.4615" width="9.51750000000038" y="150" height="325" style="fill:rgb(0,0,255);fill-opacity:0.5;stroke-width:1;stroke:rgb(0,0,0)"/>
<text transform="translate(2604.4615,154) rotate(90)" font-size="18pt">hid_init</text>
<rect x="2630.028" width="69.7364999999995" y="150" height="325" style="fill:rgb(0,255,0);fill-opacity:0.5;stroke-width:1;stroke:rgb(0,0,0)"/>
<text transform="translate(2636.028,154) rotate(90)" font-size="30pt">fsi_master_aspeed_driver_init</text>
<rect x="2703.3405" width="16.5674999999997" y="150" height="325" style="fill:rgb(255,0,20);fill-opacity:0.5;stroke-width:1;stroke:rgb(0,0,0)"/>
<text transform="translate(2704.3405,154) rotate(90)" font-size="18pt">inet6_init</text>
<rect x="2721.006" width="7.60050000000001" y="150" height="325" style="fill:rgb(255,255,20);fill-opacity:0.5;stroke-width:1;stroke:rgb(0,0,0)"/>
<text transform="translate(2722.006,154) rotate(90)" font-size="18pt">packet_init</text>
<rect x="2728.653" width="7.0619999999999" y="150" height="325" style="fill:rgb(255,0,255);fill-opacity:0.5;stroke-width:1;stroke:rgb(0,0,0)"/>
<rect x="2735.979" width="8.08950000000004" y="150" height="325" style="fill:rgb(0,255,255);fill-opacity:0.5;stroke-width:1;stroke:rgb(0,0,0)"/>
<text transform="translate(2736.979,154) rotate(90)" font-size="18pt">swp_emulation_init</text>
<rect x="2744.505" width="7.08150000000023" y="150" height="325" style="fill:rgb(0,128,255);fill-opacity:0.5;stroke-width:1;stroke:rgb(0,0,0)"/>
<rect x="2762.868" width="15.0435000000002" y="150" height="325" style="fill:rgb(0,255,128);fill-opacity:0.5;stroke-width:1;stroke:rgb(0,0,0)"/>
<text transform="translate(2763.868,154) rotate(90)" font-size="18pt">init_netconsole</text>
<text transform="translate(0,89) rotate(0)" font-size="30pt">0</text>
<text transform="translate(150,89) rotate(0)" font-size="30pt">0.1</text>
<text transform="translate(300,89) rotate(0)" font-size="30pt">0.2</text>
<text transform="translate(450,89) rotate(0)" font-size="30pt">0.3</text>
<text transform="translate(600,89) rotate(0)" font-size="30pt">0.4</text>
<text transform="translate(750,89) rotate(0)" font-size="30pt">0.5</text>
<text transform="translate(900,89) rotate(0)" font-size="30pt">0.6</text>
<text transform="translate(1050,89) rotate(0)" font-size="30pt">0.7</text>
<text transform="translate(1200,89) rotate(0)" font-size="30pt">0.8</text>
<text transform="translate(1350,89) rotate(0)" font-size="30pt">0.9</text>
<text transform="translate(1500,89) rotate(0)" font-size="30pt">1</text>
<text transform="translate(1650,89) rotate(0)" font-size="30pt">1.1</text>
<text transform="translate(1800,89) rotate(0)" font-size="30pt">1.2</text>
<text transform="translate(1950,89) rotate(0)" font-size="30pt">1.3</text>
<text transform="translate(2100,89) rotate(0)" font-size="30pt">1.4</text>
<text transform="translate(2250,89) rotate(0)" font-size="30pt">1.5</text>
<text transform="translate(2400,89) rotate(0)" font-size="30pt">1.6</text>
<text transform="translate(2550,89) rotate(0)" font-size="30pt">1.7</text>
<text transform="translate(2700,89) rotate(0)" font-size="30pt">1.8</text>
</svg>
