<?xml version="1.0" standalone="no"?> 
<svg width="2278.0379175" height="1000" version="1.1" xmlns="http://www.w3.org/2000/svg">
<rect x="26.6955" width="30.5385" y="150" height="325" style="fill:rgb(0,0,255);fill-opacity:0.5;stroke-width:1;stroke:rgb(0,0,0)"/>
<text transform="translate(32.6955,154) rotate(90)" font-size="30pt">of_platform_default_populate_init</text>
<rect x="57.9105" width="7.1535" y="150" height="325" style="fill:rgb(0,255,0);fill-opacity:0.5;stroke-width:1;stroke:rgb(0,0,0)"/>
<rect x="73.173" width="48.636" y="150" height="325" style="fill:rgb(255,0,20);fill-opacity:0.5;stroke-width:1;stroke:rgb(0,0,0)"/>
<text transform="translate(79.173,154) rotate(90)" font-size="30pt">tracer_init_tracefs</text>
<rect x="126.6" width="58.6725" y="150" height="325" style="fill:rgb(255,255,20);fill-opacity:0.5;stroke-width:1;stroke:rgb(0,0,0)"/>
<text transform="translate(132.6,154) rotate(90)" font-size="30pt">populate_rootfs</text>
<rect x="188.2725" width="3.69449999999998" y="150" height="325" style="fill:rgb(255,0,255);fill-opacity:0.5;stroke-width:1;stroke:rgb(0,0,0)"/>
<rect x="196.002" width="2.13150000000002" y="150" height="325" style="fill:rgb(0,255,255);fill-opacity:0.5;stroke-width:1;stroke:rgb(0,0,0)"/>
<rect x="203.9565" width="933.4455" y="150" height="325" style="fill:rgb(0,128,255);fill-opacity:0.5;stroke-width:1;stroke:rgb(0,0,0)"/>
<text transform="translate(209.9565,154) rotate(90)" font-size="30pt">dw8250_platform_driver_init</text>
<rect x="1138.3275" width="11.739" y="150" height="325" style="fill:rgb(0,255,128);fill-opacity:0.5;stroke-width:1;stroke:rgb(0,0,0)"/>
<text transform="translate(1139.3275,154) rotate(90)" font-size="18pt">timeriomem_rng_driver_init</text>
<rect x="1150.743" width="27.6300000000001" y="150" height="325" style="fill:rgb(255,0,128);fill-opacity:0.5;stroke-width:1;stroke:rgb(0,0,0)"/>
<text transform="translate(1151.743,154) rotate(90)" font-size="18pt">loop_init</text>
<rect x="1178.391" width="18.1469999999999" y="150" height="325" style="fill:rgb(255,255,128);fill-opacity:0.5;stroke-width:1;stroke:rgb(0,0,0)"/>
<text transform="translate(1179.391,154) rotate(90)" font-size="18pt">nbd_init</text>
<rect x="1197.255" width="317.124" y="150" height="325" style="fill:rgb(255,128,255);fill-opacity:0.5;stroke-width:1;stroke:rgb(0,0,0)"/>
<text transform="translate(1203.255,154) rotate(90)" font-size="30pt">aspeed_smc_driver_init</text>
<rect x="1515.174" width="7.52400000000011" y="150" height="325" style="fill:rgb(128,255,255);fill-opacity:0.5;stroke-width:1;stroke:rgb(0,0,0)"/>
<text transform="translate(1516.174,154) rotate(90)" font-size="18pt">fixed_mdio_bus_init</text>
<rect x="1523.115" width="36.3735000000001" y="150" height="325" style="fill:rgb(0,0,255);fill-opacity:0.5;stroke-width:1;stroke:rgb(0,0,0)"/>
<text transform="translate(1529.115,154) rotate(90)" font-size="30pt">aspeed_mdio_driver_init</text>
<rect x="1559.5155" width="218.6565" y="150" height="325" style="fill:rgb(0,255,0);fill-opacity:0.5;stroke-width:1;stroke:rgb(0,0,0)"/>
<text transform="translate(1565.5155,154) rotate(90)" font-size="30pt">ftgmac100_driver_init</text>
<rect x="1778.196" width="11.0699999999999" y="150" height="325" style="fill:rgb(255,0,20);fill-opacity:0.5;stroke-width:1;stroke:rgb(0,0,0)"/>
<text transform="translate(1779.196,154) rotate(90)" font-size="18pt">ehci_hcd_init</text>
<rect x="1789.2825" width="9.05549999999971" y="150" height="325" style="fill:rgb(255,255,20);fill-opacity:0.5;stroke-width:1;stroke:rgb(0,0,0)"/>
<text transform="translate(1790.2825,154) rotate(90)" font-size="18pt">ehci_platform_init</text>
<rect x="1798.356" width="10.1175000000001" y="150" height="325" style="fill:rgb(255,0,255);fill-opacity:0.5;stroke-width:1;stroke:rgb(0,0,0)"/>
<text transform="translate(1799.356,154) rotate(90)" font-size="18pt">usb_storage_driver_init</text>
<rect x="1809.3315" width="21.9195" y="150" height="325" style="fill:rgb(0,255,255);fill-opacity:0.5;stroke-width:1;stroke:rgb(0,0,0)"/>
<text transform="translate(1810.3315,154) rotate(90)" font-size="18pt">aspeed_rtc_driver_init</text>
<rect x="1831.458" width="5.88300000000004" y="150" height="325" style="fill:rgb(0,128,255);fill-opacity:0.5;stroke-width:1;stroke:rgb(0,0,0)"/>
<rect x="1837.3545" width="174.453" y="150" height="325" style="fill:rgb(0,255,128);fill-opacity:0.5;stroke-width:1;stroke:rgb(0,0,0)"/>
<text transform="translate(1843.3545,154) rotate(90)" font-size="30pt">aspeed_i2c_bus_driver_init</text>
<rect x="2012.5155" width="8.73000000000025" y="150" height="325" style="fill:rgb(255,0,128);fill-opacity:0.5;stroke-width:1;stroke:rgb(0,0,0)"/>
<text transform="translate(2013.5155,154) rotate(90)" font-size="18pt">w1_init</text>
<rect x="2022.9855" width="14.8199999999999" y="150" height="325" style="fill:rgb(255,255,128);fill-opacity:0.5;stroke-width:1;stroke:rgb(0,0,0)"/>
<text transform="translate(2023.9855,154) rotate(90)" font-size="18pt">dm_init</text>
<rect x="2038.1985" width="23.3985" y="150" height="325" style="fill:rgb(255,128,255);fill-opacity:0.5;stroke-width:1;stroke:rgb(0,0,0)"/>
<text transform="translate(2039.1985,154) rotate(90)" font-size="18pt">aspeed_driver_init</text>
<rect x="2062.0155" width="17.6969999999997" y="150" height="325" style="fill:rgb(128,255,255);fill-opacity:0.5;stroke-width:1;stroke:rgb(0,0,0)"/>
<text transform="translate(2063.0155,154) rotate(90)" font-size="18pt">sdhci_drv_init</text>
<rect x="2079.7245" width="9.50550000000021" y="150" height="325" style="fill:rgb(0,0,255);fill-opacity:0.5;stroke-width:1;stroke:rgb(0,0,0)"/>
<text transform="translate(2080.7245,154) rotate(90)" font-size="18pt">sdhci_pltfm_drv_init</text>
<rect x="2090.2905" width="25.8824999999997" y="150" height="325" style="fill:rgb(0,255,0);fill-opacity:0.5;stroke-width:1;stroke:rgb(0,0,0)"/>
<text transform="translate(2091.2905,154) rotate(90)" font-size="18pt">hid_init</text>
<rect x="2116.893" width="69.7155000000002" y="150" height="325" style="fill:rgb(255,0,20);fill-opacity:0.5;stroke-width:1;stroke:rgb(0,0,0)"/>
<text transform="translate(2122.893,154) rotate(90)" font-size="30pt">fsi_master_aspeed_driver_init</text>
<rect x="2190.2835" width="16.605" y="150" height="325" style="fill:rgb(255,255,20);fill-opacity:0.5;stroke-width:1;stroke:rgb(0,0,0)"/>
<text transform="translate(2191.2835,154) rotate(90)" font-size="18pt">inet6_init</text>
<rect x="2208.0075" width="7.47900000000027" y="150" height="325" style="fill:rgb(255,0,255);fill-opacity:0.5;stroke-width:1;stroke:rgb(0,0,0)"/>
<rect x="2215.5255" width="7.14599999999973" y="150" height="325" style="fill:rgb(0,255,255);fill-opacity:0.5;stroke-width:1;stroke:rgb(0,0,0)"/>
<rect x="2222.9475" width="8.03850000000011" y="150" height="325" style="fill:rgb(0,128,255);fill-opacity:0.5;stroke-width:1;stroke:rgb(0,0,0)"/>
<text transform="translate(2223.9475,154) rotate(90)" font-size="18pt">swp_emulation_init</text>
<rect x="2231.412" width="7.27350000000024" y="150" height="325" style="fill:rgb(0,255,128);fill-opacity:0.5;stroke-width:1;stroke:rgb(0,0,0)"/>
<rect x="2246.283" width="15.0404999999996" y="150" height="325" style="fill:rgb(255,0,128);fill-opacity:0.5;stroke-width:1;stroke:rgb(0,0,0)"/>
<text transform="translate(2247.283,154) rotate(90)" font-size="18pt">init_netconsole</text>
<text transform="translate(0,89) rotate(0)" font-size="30pt">0</text>
<text transform="translate(150,89) rotate(0)" font-size="30pt">0.1</text>
<text transform="translate(300,89) rotate(0)" font-size="30pt">0.2</text>
<text transform="translate(450,89) rotate(0)" font-size="30pt">0.3</text>
<text transform="translate(600,89) rotate(0)" font-size="30pt">0.4</text>
<text transform="translate(750,89) rotate(0)" font-size="30pt">0.5</text>
<text transform="translate(900,89) rotate(0)" font-size="30pt">0.6</text>
<text transform="translate(1050,89) rotate(0)" font-size="30pt">0.7</text>
<text transform="translate(1200,89) rotate(0)" font-size="30pt">0.8</text>
<text transform="translate(1350,89) rotate(0)" font-size="30pt">0.9</text>
<text transform="translate(1500,89) rotate(0)" font-size="30pt">1</text>
<text transform="translate(1650,89) rotate(0)" font-size="30pt">1.1</text>
<text transform="translate(1800,89) rotate(0)" font-size="30pt">1.2</text>
<text transform="translate(1950,89) rotate(0)" font-size="30pt">1.3</text>
<text transform="translate(2100,89) rotate(0)" font-size="30pt">1.4</text>
<text transform="translate(2250,89) rotate(0)" font-size="30pt">1.5</text>
</svg>
