<?xml version="1.0" standalone="no"?> 
<svg width="1865.491668" height="1000" version="1.1" xmlns="http://www.w3.org/2000/svg">
<rect x="17.629" width="20.429" y="150" height="325" style="fill:rgb(0,0,255);fill-opacity:0.5;stroke-width:1;stroke:rgb(0,0,0)"/>
<text transform="translate(23.629,154) rotate(90)" font-size="30pt">of_platform_default_populate_init</text>
<rect x="38.505" width="4.72800000000001" y="150" height="325" style="fill:rgb(0,255,0);fill-opacity:0.5;stroke-width:1;stroke:rgb(0,0,0)"/>
<rect x="48.654" width="32.255" y="150" height="325" style="fill:rgb(255,0,20);fill-opacity:0.5;stroke-width:1;stroke:rgb(0,0,0)"/>
<text transform="translate(54.654,154) rotate(90)" font-size="30pt">tracer_init_tracefs</text>
<rect x="84.121" width="386.925" y="150" height="325" style="fill:rgb(255,255,20);fill-opacity:0.5;stroke-width:1;stroke:rgb(0,0,0)"/>
<text transform="translate(90.121,154) rotate(90)" font-size="30pt">populate_rootfs</text>
<rect x="473.055" width="2.44200000000001" y="150" height="325" style="fill:rgb(255,0,255);fill-opacity:0.5;stroke-width:1;stroke:rgb(0,0,0)"/>
<rect x="483.341" width="622.138" y="150" height="325" style="fill:rgb(0,255,255);fill-opacity:0.5;stroke-width:1;stroke:rgb(0,0,0)"/>
<text transform="translate(489.341,154) rotate(90)" font-size="30pt">dw8250_platform_driver_init</text>
<rect x="1106.045" width="7.87900000000013" y="150" height="325" style="fill:rgb(0,128,255);fill-opacity:0.5;stroke-width:1;stroke:rgb(0,0,0)"/>
<text transform="translate(1107.045,154) rotate(90)" font-size="18pt">timeriomem_rng_driver_init</text>
<rect x="1118.054" width="9.6880000000001" y="150" height="325" style="fill:rgb(0,255,128);fill-opacity:0.5;stroke-width:1;stroke:rgb(0,0,0)"/>
<text transform="translate(1119.054,154) rotate(90)" font-size="18pt">loop_init</text>
<rect x="1127.755" width="12.1289999999999" y="150" height="325" style="fill:rgb(255,0,128);fill-opacity:0.5;stroke-width:1;stroke:rgb(0,0,0)"/>
<text transform="translate(1128.755,154) rotate(90)" font-size="18pt">nbd_init</text>
<rect x="1140.362" width="211.311" y="150" height="325" style="fill:rgb(255,255,128);fill-opacity:0.5;stroke-width:1;stroke:rgb(0,0,0)"/>
<text transform="translate(1146.362,154) rotate(90)" font-size="30pt">aspeed_smc_driver_init</text>
<rect x="1352.199" width="5.02200000000016" y="150" height="325" style="fill:rgb(255,128,255);fill-opacity:0.5;stroke-width:1;stroke:rgb(0,0,0)"/>
<text transform="translate(1353.199,154) rotate(90)" font-size="18pt">fixed_mdio_bus_init</text>
<rect x="1357.501" width="24.2200000000003" y="150" height="325" style="fill:rgb(128,255,255);fill-opacity:0.5;stroke-width:1;stroke:rgb(0,0,0)"/>
<text transform="translate(1363.501,154) rotate(90)" font-size="30pt">aspeed_mdio_driver_init</text>
<rect x="1381.737" width="145.826" y="150" height="325" style="fill:rgb(0,0,255);fill-opacity:0.5;stroke-width:1;stroke:rgb(0,0,0)"/>
<text transform="translate(1387.737,154) rotate(90)" font-size="30pt">ftgmac100_driver_init</text>
<rect x="1527.579" width="7.36999999999989" y="150" height="325" style="fill:rgb(0,255,0);fill-opacity:0.5;stroke-width:1;stroke:rgb(0,0,0)"/>
<text transform="translate(1528.579,154) rotate(90)" font-size="18pt">ehci_hcd_init</text>
<rect x="1534.96" width="6.03400000000011" y="150" height="325" style="fill:rgb(255,0,20);fill-opacity:0.5;stroke-width:1;stroke:rgb(0,0,0)"/>
<text transform="translate(1535.96,154) rotate(90)" font-size="18pt">ehci_platform_init</text>
<rect x="1541.007" width="6.74499999999989" y="150" height="325" style="fill:rgb(255,255,20);fill-opacity:0.5;stroke-width:1;stroke:rgb(0,0,0)"/>
<text transform="translate(1542.007,154) rotate(90)" font-size="18pt">usb_storage_driver_init</text>
<rect x="1548.325" width="14.6049999999998" y="150" height="325" style="fill:rgb(255,0,255);fill-opacity:0.5;stroke-width:1;stroke:rgb(0,0,0)"/>
<text transform="translate(1549.325,154) rotate(90)" font-size="18pt">aspeed_rtc_driver_init</text>
<rect x="1563.069" width="3.92099999999982" y="150" height="325" style="fill:rgb(0,255,255);fill-opacity:0.5;stroke-width:1;stroke:rgb(0,0,0)"/>
<rect x="1566.999" width="116.254" y="150" height="325" style="fill:rgb(0,128,255);fill-opacity:0.5;stroke-width:1;stroke:rgb(0,0,0)"/>
<text transform="translate(1572.999,154) rotate(90)" font-size="30pt">aspeed_i2c_bus_driver_init</text>
<rect x="1683.728" width="5.89400000000001" y="150" height="325" style="fill:rgb(0,255,128);fill-opacity:0.5;stroke-width:1;stroke:rgb(0,0,0)"/>
<text transform="translate(1684.728,154) rotate(90)" font-size="18pt">w1_init</text>
<rect x="1690.787" width="9.8599999999999" y="150" height="325" style="fill:rgb(255,0,128);fill-opacity:0.5;stroke-width:1;stroke:rgb(0,0,0)"/>
<text transform="translate(1691.787,154) rotate(90)" font-size="18pt">dm_init</text>
<rect x="1700.875" width="15.5809999999999" y="150" height="325" style="fill:rgb(255,255,128);fill-opacity:0.5;stroke-width:1;stroke:rgb(0,0,0)"/>
<text transform="translate(1701.875,154) rotate(90)" font-size="18pt">aspeed_driver_init</text>
<rect x="1716.734" width="11.8140000000001" y="150" height="325" style="fill:rgb(255,128,255);fill-opacity:0.5;stroke-width:1;stroke:rgb(0,0,0)"/>
<text transform="translate(1717.734,154) rotate(90)" font-size="18pt">sdhci_drv_init</text>
<rect x="1728.557" width="6.35100000000011" y="150" height="325" style="fill:rgb(128,255,255);fill-opacity:0.5;stroke-width:1;stroke:rgb(0,0,0)"/>
<text transform="translate(1729.557,154) rotate(90)" font-size="18pt">sdhci_pltfm_drv_init</text>
<rect x="1735.641" width="6.34500000000003" y="150" height="325" style="fill:rgb(0,0,255);fill-opacity:0.5;stroke-width:1;stroke:rgb(0,0,0)"/>
<text transform="translate(1736.641,154) rotate(90)" font-size="18pt">hid_init</text>
<rect x="1753.352" width="46.4909999999998" y="150" height="325" style="fill:rgb(0,255,0);fill-opacity:0.5;stroke-width:1;stroke:rgb(0,0,0)"/>
<text transform="translate(1759.352,154) rotate(90)" font-size="30pt">fsi_master_aspeed_driver_init</text>
<rect x="1802.227" width="11.0449999999998" y="150" height="325" style="fill:rgb(255,0,20);fill-opacity:0.5;stroke-width:1;stroke:rgb(0,0,0)"/>
<text transform="translate(1803.227,154) rotate(90)" font-size="18pt">inet6_init</text>
<rect x="1814.004" width="5.06700000000001" y="150" height="325" style="fill:rgb(255,255,20);fill-opacity:0.5;stroke-width:1;stroke:rgb(0,0,0)"/>
<text transform="translate(1815.004,154) rotate(90)" font-size="18pt">packet_init</text>
<rect x="1819.102" width="4.70799999999986" y="150" height="325" style="fill:rgb(255,0,255);fill-opacity:0.5;stroke-width:1;stroke:rgb(0,0,0)"/>
<rect x="1823.986" width="5.39300000000003" y="150" height="325" style="fill:rgb(0,255,255);fill-opacity:0.5;stroke-width:1;stroke:rgb(0,0,0)"/>
<text transform="translate(1824.986,154) rotate(90)" font-size="18pt">swp_emulation_init</text>
<rect x="1829.67" width="4.721" y="150" height="325" style="fill:rgb(0,128,255);fill-opacity:0.5;stroke-width:1;stroke:rgb(0,0,0)"/>
<rect x="1841.912" width="10.029" y="150" height="325" style="fill:rgb(0,255,128);fill-opacity:0.5;stroke-width:1;stroke:rgb(0,0,0)"/>
<text transform="translate(1842.912,154) rotate(90)" font-size="18pt">init_netconsole</text>
<text transform="translate(0,89) rotate(0)" font-size="30pt">0</text>
<text transform="translate(100,89) rotate(0)" font-size="30pt">0.1</text>
<text transform="translate(200,89) rotate(0)" font-size="30pt">0.2</text>
<text transform="translate(300,89) rotate(0)" font-size="30pt">0.3</text>
<text transform="translate(400,89) rotate(0)" font-size="30pt">0.4</text>
<text transform="translate(500,89) rotate(0)" font-size="30pt">0.5</text>
<text transform="translate(600,89) rotate(0)" font-size="30pt">0.6</text>
<text transform="translate(700,89) rotate(0)" font-size="30pt">0.7</text>
<text transform="translate(800,89) rotate(0)" font-size="30pt">0.8</text>
<text transform="translate(900,89) rotate(0)" font-size="30pt">0.9</text>
<text transform="translate(1000,89) rotate(0)" font-size="30pt">1</text>
<text transform="translate(1100,89) rotate(0)" font-size="30pt">1.1</text>
<text transform="translate(1200,89) rotate(0)" font-size="30pt">1.2</text>
<text transform="translate(1300,89) rotate(0)" font-size="30pt">1.3</text>
<text transform="translate(1400,89) rotate(0)" font-size="30pt">1.4</text>
<text transform="translate(1500,89) rotate(0)" font-size="30pt">1.5</text>
<text transform="translate(1600,89) rotate(0)" font-size="30pt">1.6</text>
<text transform="translate(1700,89) rotate(0)" font-size="30pt">1.7</text>
<text transform="translate(1800,89) rotate(0)" font-size="30pt">1.8</text>
</svg>
