<?xml version="1.0" standalone="no"?> 
<svg width="1518.691945" height="1000" version="1.1" xmlns="http://www.w3.org/2000/svg">
<rect x="17.797" width="20.359" y="150" height="325" style="fill:rgb(0,0,255);fill-opacity:0.5;stroke-width:1;stroke:rgb(0,0,0)"/>
<text transform="translate(23.797,154) rotate(90)" font-size="30pt">of_platform_default_populate_init</text>
<rect x="38.607" width="4.76900000000001" y="150" height="325" style="fill:rgb(0,255,0);fill-opacity:0.5;stroke-width:1;stroke:rgb(0,0,0)"/>
<rect x="48.782" width="32.424" y="150" height="325" style="fill:rgb(255,0,20);fill-opacity:0.5;stroke-width:1;stroke:rgb(0,0,0)"/>
<text transform="translate(54.782,154) rotate(90)" font-size="30pt">tracer_init_tracefs</text>
<rect x="84.4" width="39.115" y="150" height="325" style="fill:rgb(255,255,20);fill-opacity:0.5;stroke-width:1;stroke:rgb(0,0,0)"/>
<text transform="translate(90.4,154) rotate(90)" font-size="30pt">populate_rootfs</text>
<rect x="125.515" width="2.46299999999999" y="150" height="325" style="fill:rgb(255,0,255);fill-opacity:0.5;stroke-width:1;stroke:rgb(0,0,0)"/>
<rect x="130.668" width="1.42099999999999" y="150" height="325" style="fill:rgb(0,255,255);fill-opacity:0.5;stroke-width:1;stroke:rgb(0,0,0)"/>
<rect x="135.971" width="622.297" y="150" height="325" style="fill:rgb(0,128,255);fill-opacity:0.5;stroke-width:1;stroke:rgb(0,0,0)"/>
<text transform="translate(141.971,154) rotate(90)" font-size="30pt">dw8250_platform_driver_init</text>
<rect x="758.885" width="7.82600000000002" y="150" height="325" style="fill:rgb(0,255,128);fill-opacity:0.5;stroke-width:1;stroke:rgb(0,0,0)"/>
<text transform="translate(759.885,154) rotate(90)" font-size="18pt">timeriomem_rng_driver_init</text>
<rect x="767.162" width="18.42" y="150" height="325" style="fill:rgb(255,0,128);fill-opacity:0.5;stroke-width:1;stroke:rgb(0,0,0)"/>
<text transform="translate(768.162,154) rotate(90)" font-size="18pt">loop_init</text>
<rect x="785.594" width="12.098" y="150" height="325" style="fill:rgb(255,255,128);fill-opacity:0.5;stroke-width:1;stroke:rgb(0,0,0)"/>
<text transform="translate(786.594,154) rotate(90)" font-size="18pt">nbd_init</text>
<rect x="798.17" width="211.416" y="150" height="325" style="fill:rgb(255,128,255);fill-opacity:0.5;stroke-width:1;stroke:rgb(0,0,0)"/>
<text transform="translate(804.17,154) rotate(90)" font-size="30pt">aspeed_smc_driver_init</text>
<rect x="1010.116" width="5.01600000000019" y="150" height="325" style="fill:rgb(128,255,255);fill-opacity:0.5;stroke-width:1;stroke:rgb(0,0,0)"/>
<text transform="translate(1011.116,154) rotate(90)" font-size="18pt">fixed_mdio_bus_init</text>
<rect x="1015.41" width="24.2489999999999" y="150" height="325" style="fill:rgb(0,0,255);fill-opacity:0.5;stroke-width:1;stroke:rgb(0,0,0)"/>
<text transform="translate(1021.41,154) rotate(90)" font-size="30pt">aspeed_mdio_driver_init</text>
<rect x="1039.677" width="145.771" y="150" height="325" style="fill:rgb(0,255,0);fill-opacity:0.5;stroke-width:1;stroke:rgb(0,0,0)"/>
<text transform="translate(1045.677,154) rotate(90)" font-size="30pt">ftgmac100_driver_init</text>
<rect x="1185.464" width="7.37999999999988" y="150" height="325" style="fill:rgb(255,0,20);fill-opacity:0.5;stroke-width:1;stroke:rgb(0,0,0)"/>
<text transform="translate(1186.464,154) rotate(90)" font-size="18pt">ehci_hcd_init</text>
<rect x="1192.855" width="6.03699999999981" y="150" height="325" style="fill:rgb(255,255,20);fill-opacity:0.5;stroke-width:1;stroke:rgb(0,0,0)"/>
<text transform="translate(1193.855,154) rotate(90)" font-size="18pt">ehci_platform_init</text>
<rect x="1198.904" width="6.74499999999989" y="150" height="325" style="fill:rgb(255,0,255);fill-opacity:0.5;stroke-width:1;stroke:rgb(0,0,0)"/>
<text transform="translate(1199.904,154) rotate(90)" font-size="18pt">usb_storage_driver_init</text>
<rect x="1206.221" width="14.6130000000001" y="150" height="325" style="fill:rgb(0,255,255);fill-opacity:0.5;stroke-width:1;stroke:rgb(0,0,0)"/>
<text transform="translate(1207.221,154) rotate(90)" font-size="18pt">aspeed_rtc_driver_init</text>
<rect x="1220.972" width="3.92200000000003" y="150" height="325" style="fill:rgb(0,128,255);fill-opacity:0.5;stroke-width:1;stroke:rgb(0,0,0)"/>
<rect x="1224.903" width="116.302" y="150" height="325" style="fill:rgb(0,255,128);fill-opacity:0.5;stroke-width:1;stroke:rgb(0,0,0)"/>
<text transform="translate(1230.903,154) rotate(90)" font-size="30pt">aspeed_i2c_bus_driver_init</text>
<rect x="1341.677" width="5.82000000000016" y="150" height="325" style="fill:rgb(255,0,128);fill-opacity:0.5;stroke-width:1;stroke:rgb(0,0,0)"/>
<text transform="translate(1342.677,154) rotate(90)" font-size="18pt">w1_init</text>
<rect x="1348.657" width="9.87999999999988" y="150" height="325" style="fill:rgb(255,255,128);fill-opacity:0.5;stroke-width:1;stroke:rgb(0,0,0)"/>
<text transform="translate(1349.657,154) rotate(90)" font-size="18pt">dm_init</text>
<rect x="1358.799" width="15.5989999999997" y="150" height="325" style="fill:rgb(255,128,255);fill-opacity:0.5;stroke-width:1;stroke:rgb(0,0,0)"/>
<text transform="translate(1359.799,154) rotate(90)" font-size="18pt">aspeed_driver_init</text>
<rect x="1374.677" width="11.798" y="150" height="325" style="fill:rgb(128,255,255);fill-opacity:0.5;stroke-width:1;stroke:rgb(0,0,0)"/>
<text transform="translate(1375.677,154) rotate(90)" font-size="18pt">sdhci_drv_init</text>
<rect x="1386.483" width="6.33699999999999" y="150" height="325" style="fill:rgb(0,0,255);fill-opacity:0.5;stroke-width:1;stroke:rgb(0,0,0)"/>
<text transform="translate(1387.483,154) rotate(90)" font-size="18pt">sdhci_pltfm_drv_init</text>
<rect x="1393.527" width="17.2549999999999" y="150" height="325" style="fill:rgb(0,255,0);fill-opacity:0.5;stroke-width:1;stroke:rgb(0,0,0)"/>
<text transform="translate(1394.527,154) rotate(90)" font-size="18pt">hid_init</text>
<rect x="1411.262" width="46.4770000000001" y="150" height="325" style="fill:rgb(255,0,20);fill-opacity:0.5;stroke-width:1;stroke:rgb(0,0,0)"/>
<text transform="translate(1417.262,154) rotate(90)" font-size="30pt">fsi_master_aspeed_driver_init</text>
<rect x="1460.189" width="11.0699999999999" y="150" height="325" style="fill:rgb(255,255,20);fill-opacity:0.5;stroke-width:1;stroke:rgb(0,0,0)"/>
<text transform="translate(1461.189,154) rotate(90)" font-size="18pt">inet6_init</text>
<rect x="1472.005" width="4.9860000000001" y="150" height="325" style="fill:rgb(255,0,255);fill-opacity:0.5;stroke-width:1;stroke:rgb(0,0,0)"/>
<rect x="1477.017" width="4.7639999999999" y="150" height="325" style="fill:rgb(0,255,255);fill-opacity:0.5;stroke-width:1;stroke:rgb(0,0,0)"/>
<rect x="1481.965" width="5.35899999999992" y="150" height="325" style="fill:rgb(0,128,255);fill-opacity:0.5;stroke-width:1;stroke:rgb(0,0,0)"/>
<text transform="translate(1482.965,154) rotate(90)" font-size="18pt">swp_emulation_init</text>
<rect x="1487.608" width="4.84900000000016" y="150" height="325" style="fill:rgb(0,255,128);fill-opacity:0.5;stroke-width:1;stroke:rgb(0,0,0)"/>
<rect x="1497.522" width="10.027" y="150" height="325" style="fill:rgb(255,0,128);fill-opacity:0.5;stroke-width:1;stroke:rgb(0,0,0)"/>
<text transform="translate(1498.522,154) rotate(90)" font-size="18pt">init_netconsole</text>
<text transform="translate(0,89) rotate(0)" font-size="30pt">0</text>
<text transform="translate(100,89) rotate(0)" font-size="30pt">0.1</text>
<text transform="translate(200,89) rotate(0)" font-size="30pt">0.2</text>
<text transform="translate(300,89) rotate(0)" font-size="30pt">0.3</text>
<text transform="translate(400,89) rotate(0)" font-size="30pt">0.4</text>
<text transform="translate(500,89) rotate(0)" font-size="30pt">0.5</text>
<text transform="translate(600,89) rotate(0)" font-size="30pt">0.6</text>
<text transform="translate(700,89) rotate(0)" font-size="30pt">0.7</text>
<text transform="translate(800,89) rotate(0)" font-size="30pt">0.8</text>
<text transform="translate(900,89) rotate(0)" font-size="30pt">0.9</text>
<text transform="translate(1000,89) rotate(0)" font-size="30pt">1</text>
<text transform="translate(1100,89) rotate(0)" font-size="30pt">1.1</text>
<text transform="translate(1200,89) rotate(0)" font-size="30pt">1.2</text>
<text transform="translate(1300,89) rotate(0)" font-size="30pt">1.3</text>
<text transform="translate(1400,89) rotate(0)" font-size="30pt">1.4</text>
<text transform="translate(1500,89) rotate(0)" font-size="30pt">1.5</text>
</svg>
