<?xml version="1.0" standalone="no"?> 
<svg width="7887.966945" height="1000" version="1.1" xmlns="http://www.w3.org/2000/svg">
<rect x="13.03" width="9.69" y="150" height="325" style="fill:rgb(0,0,255);fill-opacity:0.5;stroke-width:1;stroke:rgb(0,0,0)"/>
<rect x="122.33" width="229.77" y="150" height="325" style="fill:rgb(0,255,0);fill-opacity:0.5;stroke-width:1;stroke:rgb(0,0,0)"/>
<text transform="translate(128.33,154) rotate(90)" font-size="30pt">init_graph_trace</text>
<rect x="352.75" width="195.545" y="150" height="325" style="fill:rgb(255,0,20);fill-opacity:0.5;stroke-width:1;stroke:rgb(0,0,0)"/>
<text transform="translate(358.75,154) rotate(90)" font-size="30pt">cma_init_reserved_areas</text>
<rect x="568.34" width="24.67" y="150" height="325" style="fill:rgb(255,255,20);fill-opacity:0.5;stroke-width:1;stroke:rgb(0,0,0)"/>
<rect x="593.13" width="10.61" y="150" height="325" style="fill:rgb(255,0,255);fill-opacity:0.5;stroke-width:1;stroke:rgb(0,0,0)"/>
<rect x="626.21" width="365.985" y="150" height="325" style="fill:rgb(0,255,255);fill-opacity:0.5;stroke-width:1;stroke:rgb(0,0,0)"/>
<text transform="translate(632.21,154) rotate(90)" font-size="30pt">of_platform_default_populate_init</text>
<rect x="1001.56" width="122.3" y="150" height="325" style="fill:rgb(0,128,255);fill-opacity:0.5;stroke-width:1;stroke:rgb(0,0,0)"/>
<text transform="translate(1007.56,154) rotate(90)" font-size="30pt">param_sysfs_init</text>
<rect x="1137.955" width="6.54999999999973" y="150" height="325" style="fill:rgb(0,255,128);fill-opacity:0.5;stroke-width:1;stroke:rgb(0,0,0)"/>
<rect x="1176.355" width="13.22" y="150" height="325" style="fill:rgb(255,0,128);fill-opacity:0.5;stroke-width:1;stroke:rgb(0,0,0)"/>
<rect x="1229.88" width="6.68499999999995" y="150" height="325" style="fill:rgb(255,255,128);fill-opacity:0.5;stroke-width:1;stroke:rgb(0,0,0)"/>
<rect x="1252.495" width="1675.015" y="150" height="325" style="fill:rgb(255,128,255);fill-opacity:0.5;stroke-width:1;stroke:rgb(0,0,0)"/>
<text transform="translate(1258.495,154) rotate(90)" font-size="30pt">tracer_init_tracefs</text>
<rect x="2938.135" width="22.7800000000002" y="150" height="325" style="fill:rgb(128,255,255);fill-opacity:0.5;stroke-width:1;stroke:rgb(0,0,0)"/>
<rect x="2962.69" width="13.8800000000001" y="150" height="325" style="fill:rgb(0,0,255);fill-opacity:0.5;stroke-width:1;stroke:rgb(0,0,0)"/>
<rect x="2978.155" width="6.92500000000018" y="150" height="325" style="fill:rgb(0,255,0);fill-opacity:0.5;stroke-width:1;stroke:rgb(0,0,0)"/>
<rect x="2985.815" width="653.24" y="150" height="325" style="fill:rgb(255,0,20);fill-opacity:0.5;stroke-width:1;stroke:rgb(0,0,0)"/>
<text transform="translate(2991.815,154) rotate(90)" font-size="30pt">populate_rootfs</text>
<rect x="3644.89" width="11.0250000000001" y="150" height="325" style="fill:rgb(255,255,20);fill-opacity:0.5;stroke-width:1;stroke:rgb(0,0,0)"/>
<rect x="3710.425" width="164.175" y="150" height="325" style="fill:rgb(255,0,255);fill-opacity:0.5;stroke-width:1;stroke:rgb(0,0,0)"/>
<text transform="translate(3716.425,154) rotate(90)" font-size="30pt">jent_mod_init</text>
<rect x="3878.61" width="13.6700000000001" y="150" height="325" style="fill:rgb(0,255,255);fill-opacity:0.5;stroke-width:1;stroke:rgb(0,0,0)"/>
<rect x="3892.41" width="14.5700000000006" y="150" height="325" style="fill:rgb(0,128,255);fill-opacity:0.5;stroke-width:1;stroke:rgb(0,0,0)"/>
<rect x="3909.705" width="343.85" y="150" height="325" style="fill:rgb(0,255,128);fill-opacity:0.5;stroke-width:1;stroke:rgb(0,0,0)"/>
<text transform="translate(3915.705,154) rotate(90)" font-size="30pt">aspeed_pcie_driver_init</text>
<rect x="4258.67" width="24.4399999999996" y="150" height="325" style="fill:rgb(255,0,128);fill-opacity:0.5;stroke-width:1;stroke:rgb(0,0,0)"/>
<rect x="4324.85" width="30.2600000000002" y="150" height="325" style="fill:rgb(255,255,128);fill-opacity:0.5;stroke-width:1;stroke:rgb(0,0,0)"/>
<text transform="translate(4325.85,154) rotate(90)" font-size="18pt">aspeed_mctp_driver_init</text>
<rect x="4355.24" width="10.0300000000007" y="150" height="325" style="fill:rgb(255,128,255);fill-opacity:0.5;stroke-width:1;stroke:rgb(0,0,0)"/>
<rect x="4365.39" width="245.42" y="150" height="325" style="fill:rgb(128,255,255);fill-opacity:0.5;stroke-width:1;stroke:rgb(0,0,0)"/>
<text transform="translate(4371.39,154) rotate(90)" font-size="30pt">ast_video_driver_init</text>
<rect x="4617.435" width="12.3250000000007" y="150" height="325" style="fill:rgb(0,0,255);fill-opacity:0.5;stroke-width:1;stroke:rgb(0,0,0)"/>
<rect x="4629.88" width="11.4350000000004" y="150" height="325" style="fill:rgb(0,255,0);fill-opacity:0.5;stroke-width:1;stroke:rgb(0,0,0)"/>
<rect x="4644.045" width="55.2199999999993" y="150" height="325" style="fill:rgb(255,0,20);fill-opacity:0.5;stroke-width:1;stroke:rgb(0,0,0)"/>
<text transform="translate(4645.045,154) rotate(90)" font-size="18pt">serial8250_init</text>
<rect x="4705.81" width="142.735000000001" y="150" height="325" style="fill:rgb(255,255,20);fill-opacity:0.5;stroke-width:1;stroke:rgb(0,0,0)"/>
<text transform="translate(4711.81,154) rotate(90)" font-size="30pt">ast8250_platform_driver_init</text>
<rect x="4848.68" width="16.0799999999999" y="150" height="325" style="fill:rgb(255,0,255);fill-opacity:0.5;stroke-width:1;stroke:rgb(0,0,0)"/>
<rect x="4887.165" width="138.575" y="150" height="325" style="fill:rgb(0,255,255);fill-opacity:0.5;stroke-width:1;stroke:rgb(0,0,0)"/>
<text transform="translate(4893.165,154) rotate(90)" font-size="30pt">brd_init</text>
<rect x="5025.86" width="70.8549999999996" y="150" height="325" style="fill:rgb(0,128,255);fill-opacity:0.5;stroke-width:1;stroke:rgb(0,0,0)"/>
<text transform="translate(5026.86,154) rotate(90)" font-size="18pt">loop_init</text>
<rect x="5096.84" width="146.2" y="150" height="325" style="fill:rgb(0,255,128);fill-opacity:0.5;stroke-width:1;stroke:rgb(0,0,0)"/>
<text transform="translate(5102.84,154) rotate(90)" font-size="30pt">nbd_init</text>
<rect x="5249.845" width="9.38000000000011" y="150" height="325" style="fill:rgb(255,0,128);fill-opacity:0.5;stroke-width:1;stroke:rgb(0,0,0)"/>
<rect x="5264.06" width="323.065" y="150" height="325" style="fill:rgb(255,255,128);fill-opacity:0.5;stroke-width:1;stroke:rgb(0,0,0)"/>
<text transform="translate(5270.06,154) rotate(90)" font-size="30pt">aspeed_spi_driver_init</text>
<rect x="5587.855" width="29.9300000000003" y="150" height="325" style="fill:rgb(255,128,255);fill-opacity:0.5;stroke-width:1;stroke:rgb(0,0,0)"/>
<text transform="translate(5588.855,154) rotate(90)" font-size="18pt">bonding_init</text>
<rect x="5618.755" width="46.994999999999" y="150" height="325" style="fill:rgb(128,255,255);fill-opacity:0.5;stroke-width:1;stroke:rgb(0,0,0)"/>
<text transform="translate(5619.755,154) rotate(90)" font-size="18pt">aspeed_mdio_driver_init</text>
<rect x="5681.55" width="9.48500000000058" y="150" height="325" style="fill:rgb(0,0,255);fill-opacity:0.5;stroke-width:1;stroke:rgb(0,0,0)"/>
<rect x="5691.15" width="236.115" y="150" height="325" style="fill:rgb(0,255,0);fill-opacity:0.5;stroke-width:1;stroke:rgb(0,0,0)"/>
<text transform="translate(5697.15,154) rotate(90)" font-size="30pt">ftgmac100_driver_init</text>
<rect x="5932.44" width="146.045000000001" y="150" height="325" style="fill:rgb(255,0,20);fill-opacity:0.5;stroke-width:1;stroke:rgb(0,0,0)"/>
<text transform="translate(5938.44,154) rotate(90)" font-size="30pt">ehci_platform_init</text>
<rect x="6078.615" width="33.5299999999997" y="150" height="325" style="fill:rgb(255,255,20);fill-opacity:0.5;stroke-width:1;stroke:rgb(0,0,0)"/>
<text transform="translate(6079.615,154) rotate(90)" font-size="18pt">uhci_hcd_init</text>
<rect x="6117.645" width="31.8250000000007" y="150" height="325" style="fill:rgb(255,0,255);fill-opacity:0.5;stroke-width:1;stroke:rgb(0,0,0)"/>
<text transform="translate(6118.645,154) rotate(90)" font-size="18pt">ast_vhub_driver_init</text>
<rect x="6157.095" width="9.49499999999898" y="150" height="325" style="fill:rgb(0,255,255);fill-opacity:0.5;stroke-width:1;stroke:rgb(0,0,0)"/>
<rect x="6169.12" width="114.815" y="150" height="325" style="fill:rgb(0,128,255);fill-opacity:0.5;stroke-width:1;stroke:rgb(0,0,0)"/>
<text transform="translate(6175.12,154) rotate(90)" font-size="30pt">aspeed_new_i2c_bus_driver_init</text>
<rect x="6289.165" width="122.415" y="150" height="325" style="fill:rgb(0,255,128);fill-opacity:0.5;stroke-width:1;stroke:rgb(0,0,0)"/>
<text transform="translate(6295.165,154) rotate(90)" font-size="30pt">dw_i3c_driver_init</text>
<rect x="6422.785" width="147.46" y="150" height="325" style="fill:rgb(255,0,128);fill-opacity:0.5;stroke-width:1;stroke:rgb(0,0,0)"/>
<text transform="translate(6428.785,154) rotate(90)" font-size="30pt">adt7475_driver_init</text>
<rect x="6574.605" width="80.0500000000002" y="150" height="325" style="fill:rgb(255,255,128);fill-opacity:0.5;stroke-width:1;stroke:rgb(0,0,0)"/>
<text transform="translate(6575.605,154) rotate(90)" font-size="18pt">aspeed_pwm_tachometer_driver_init</text>
<rect x="6654.785" width="7.83499999999913" y="150" height="325" style="fill:rgb(255,128,255);fill-opacity:0.5;stroke-width:1;stroke:rgb(0,0,0)"/>
<rect x="6662.735" width="9.94000000000051" y="150" height="325" style="fill:rgb(128,255,255);fill-opacity:0.5;stroke-width:1;stroke:rgb(0,0,0)"/>
<rect x="6694.095" width="13.0099999999993" y="150" height="325" style="fill:rgb(0,0,255);fill-opacity:0.5;stroke-width:1;stroke:rgb(0,0,0)"/>
<rect x="6715.125" width="549.31" y="150" height="325" style="fill:rgb(0,255,0);fill-opacity:0.5;stroke-width:1;stroke:rgb(0,0,0)"/>
<text transform="translate(6721.125,154) rotate(90)" font-size="30pt">aspeed_sdc_init</text>
<rect x="7270.11" width="109.190000000001" y="150" height="325" style="fill:rgb(255,0,20);fill-opacity:0.5;stroke-width:1;stroke:rgb(0,0,0)"/>
<text transform="translate(7276.11,154) rotate(90)" font-size="30pt">aspeed_hace_driver_init</text>
<rect x="7379.425" width="62.1150000000007" y="150" height="325" style="fill:rgb(255,255,20);fill-opacity:0.5;stroke-width:1;stroke:rgb(0,0,0)"/>
<text transform="translate(7380.425,154) rotate(90)" font-size="18pt">aspeed_acry_driver_init</text>
<rect x="7444.675" width="56.4800000000005" y="150" height="325" style="fill:rgb(255,0,255);fill-opacity:0.5;stroke-width:1;stroke:rgb(0,0,0)"/>
<text transform="translate(7445.675,154) rotate(90)" font-size="18pt">aspeed_adc_driver_init</text>
<rect x="7519.7" width="12.4999999999991" y="150" height="325" style="fill:rgb(0,255,255);fill-opacity:0.5;stroke-width:1;stroke:rgb(0,0,0)"/>
<rect x="7555.84" width="22.3099999999986" y="150" height="325" style="fill:rgb(0,128,255);fill-opacity:0.5;stroke-width:1;stroke:rgb(0,0,0)"/>
<rect x="7587.725" width="10.1549999999997" y="150" height="325" style="fill:rgb(0,255,128);fill-opacity:0.5;stroke-width:1;stroke:rgb(0,0,0)"/>
<rect x="7612.625" width="16.4549999999999" y="150" height="325" style="fill:rgb(255,0,128);fill-opacity:0.5;stroke-width:1;stroke:rgb(0,0,0)"/>
<rect x="7630.55" width="170.754999999999" y="150" height="325" style="fill:rgb(255,255,128);fill-opacity:0.5;stroke-width:1;stroke:rgb(0,0,0)"/>
<text transform="translate(7636.55,154) rotate(90)" font-size="30pt">clk_debug_init</text>
<rect x="7801.475" width="17.7649999999994" y="150" height="325" style="fill:rgb(255,128,255);fill-opacity:0.5;stroke-width:1;stroke:rgb(0,0,0)"/>
<text transform="translate(0,89) rotate(0)" font-size="30pt">0</text>
<text transform="translate(500,89) rotate(0)" font-size="30pt">0.1</text>
<text transform="translate(1000,89) rotate(0)" font-size="30pt">0.2</text>
<text transform="translate(1500,89) rotate(0)" font-size="30pt">0.3</text>
<text transform="translate(2000,89) rotate(0)" font-size="30pt">0.4</text>
<text transform="translate(2500,89) rotate(0)" font-size="30pt">0.5</text>
<text transform="translate(3000,89) rotate(0)" font-size="30pt">0.6</text>
<text transform="translate(3500,89) rotate(0)" font-size="30pt">0.7</text>
<text transform="translate(4000,89) rotate(0)" font-size="30pt">0.8</text>
<text transform="translate(4500,89) rotate(0)" font-size="30pt">0.9</text>
<text transform="translate(5000,89) rotate(0)" font-size="30pt">1</text>
<text transform="translate(5500,89) rotate(0)" font-size="30pt">1.1</text>
<text transform="translate(6000,89) rotate(0)" font-size="30pt">1.2</text>
<text transform="translate(6500,89) rotate(0)" font-size="30pt">1.3</text>
<text transform="translate(7000,89) rotate(0)" font-size="30pt">1.4</text>
<text transform="translate(7500,89) rotate(0)" font-size="30pt">1.5</text>
</svg>
