<?xml version="1.0" standalone="no"?> 
<svg width="3734.231918" height="1000" version="1.1" xmlns="http://www.w3.org/2000/svg">
<rect x="35.362" width="40.686" y="150" height="325" style="fill:rgb(0,0,255);fill-opacity:0.5;stroke-width:1;stroke:rgb(0,0,0)"/>
<text transform="translate(41.362,154) rotate(90)" font-size="30pt">of_platform_default_populate_init</text>
<rect x="76.952" width="9.512" y="150" height="325" style="fill:rgb(0,255,0);fill-opacity:0.5;stroke-width:1;stroke:rgb(0,0,0)"/>
<rect x="97.22" width="64.538" y="150" height="325" style="fill:rgb(255,0,20);fill-opacity:0.5;stroke-width:1;stroke:rgb(0,0,0)"/>
<text transform="translate(103.22,154) rotate(90)" font-size="30pt">tracer_init_tracefs</text>
<rect x="168.186" width="774.756" y="150" height="325" style="fill:rgb(255,255,20);fill-opacity:0.5;stroke-width:1;stroke:rgb(0,0,0)"/>
<text transform="translate(174.186,154) rotate(90)" font-size="30pt">populate_rootfs</text>
<rect x="947.034" width="4.95400000000006" y="150" height="325" style="fill:rgb(255,0,255);fill-opacity:0.5;stroke-width:1;stroke:rgb(0,0,0)"/>
<rect x="967.634" width="1246.482" y="150" height="325" style="fill:rgb(0,255,255);fill-opacity:0.5;stroke-width:1;stroke:rgb(0,0,0)"/>
<text transform="translate(973.634,154) rotate(90)" font-size="30pt">dw8250_platform_driver_init</text>
<rect x="2215.21" width="15.7479999999996" y="150" height="325" style="fill:rgb(0,128,255);fill-opacity:0.5;stroke-width:1;stroke:rgb(0,0,0)"/>
<text transform="translate(2216.21,154) rotate(90)" font-size="18pt">timeriomem_rng_driver_init</text>
<rect x="2239.35" width="19.3379999999997" y="150" height="325" style="fill:rgb(0,255,128);fill-opacity:0.5;stroke-width:1;stroke:rgb(0,0,0)"/>
<text transform="translate(2240.35,154) rotate(90)" font-size="18pt">loop_init</text>
<rect x="2258.712" width="24.346" y="150" height="325" style="fill:rgb(255,0,128);fill-opacity:0.5;stroke-width:1;stroke:rgb(0,0,0)"/>
<text transform="translate(2259.712,154) rotate(90)" font-size="18pt">nbd_init</text>
<rect x="2284.062" width="422.656" y="150" height="325" style="fill:rgb(255,255,128);fill-opacity:0.5;stroke-width:1;stroke:rgb(0,0,0)"/>
<text transform="translate(2290.062,154) rotate(90)" font-size="30pt">aspeed_smc_driver_init</text>
<rect x="2707.78" width="10.154" y="150" height="325" style="fill:rgb(255,128,255);fill-opacity:0.5;stroke-width:1;stroke:rgb(0,0,0)"/>
<text transform="translate(2708.78,154) rotate(90)" font-size="18pt">fixed_mdio_bus_init</text>
<rect x="2718.496" width="48.2259999999997" y="150" height="325" style="fill:rgb(128,255,255);fill-opacity:0.5;stroke-width:1;stroke:rgb(0,0,0)"/>
<text transform="translate(2724.496,154) rotate(90)" font-size="30pt">aspeed_mdio_driver_init</text>
<rect x="2766.754" width="291.954" y="150" height="325" style="fill:rgb(0,0,255);fill-opacity:0.5;stroke-width:1;stroke:rgb(0,0,0)"/>
<text transform="translate(2772.754,154) rotate(90)" font-size="30pt">ftgmac100_driver_init</text>
<rect x="3058.738" width="14.6620000000003" y="150" height="325" style="fill:rgb(0,255,0);fill-opacity:0.5;stroke-width:1;stroke:rgb(0,0,0)"/>
<text transform="translate(3059.738,154) rotate(90)" font-size="18pt">ehci_hcd_init</text>
<rect x="3073.42" width="12.1080000000006" y="150" height="325" style="fill:rgb(255,0,20);fill-opacity:0.5;stroke-width:1;stroke:rgb(0,0,0)"/>
<text transform="translate(3074.42,154) rotate(90)" font-size="18pt">ehci_platform_init</text>
<rect x="3085.558" width="13.556" y="150" height="325" style="fill:rgb(255,255,20);fill-opacity:0.5;stroke-width:1;stroke:rgb(0,0,0)"/>
<text transform="translate(3086.558,154) rotate(90)" font-size="18pt">usb_storage_driver_init</text>
<rect x="3100.258" width="29.1239999999993" y="150" height="325" style="fill:rgb(255,0,255);fill-opacity:0.5;stroke-width:1;stroke:rgb(0,0,0)"/>
<text transform="translate(3101.258,154) rotate(90)" font-size="18pt">aspeed_rtc_driver_init</text>
<rect x="3129.69" width="7.95199999999977" y="150" height="325" style="fill:rgb(0,255,255);fill-opacity:0.5;stroke-width:1;stroke:rgb(0,0,0)"/>
<rect x="3137.662" width="232.32" y="150" height="325" style="fill:rgb(0,128,255);fill-opacity:0.5;stroke-width:1;stroke:rgb(0,0,0)"/>
<text transform="translate(3143.662,154) rotate(90)" font-size="30pt">aspeed_i2c_bus_driver_init</text>
<rect x="3370.896" width="11.7659999999996" y="150" height="325" style="fill:rgb(0,255,128);fill-opacity:0.5;stroke-width:1;stroke:rgb(0,0,0)"/>
<text transform="translate(3371.896,154) rotate(90)" font-size="18pt">w1_init</text>
<rect x="3384.984" width="19.6659999999997" y="150" height="325" style="fill:rgb(255,0,128);fill-opacity:0.5;stroke-width:1;stroke:rgb(0,0,0)"/>
<text transform="translate(3385.984,154) rotate(90)" font-size="18pt">dm_init</text>
<rect x="3405.074" width="31.25" y="150" height="325" style="fill:rgb(255,255,128);fill-opacity:0.5;stroke-width:1;stroke:rgb(0,0,0)"/>
<text transform="translate(3406.074,154) rotate(90)" font-size="18pt">aspeed_driver_init</text>
<rect x="3436.852" width="23.674" y="150" height="325" style="fill:rgb(255,128,255);fill-opacity:0.5;stroke-width:1;stroke:rgb(0,0,0)"/>
<text transform="translate(3437.852,154) rotate(90)" font-size="18pt">sdhci_drv_init</text>
<rect x="3460.544" width="12.6400000000003" y="150" height="325" style="fill:rgb(128,255,255);fill-opacity:0.5;stroke-width:1;stroke:rgb(0,0,0)"/>
<text transform="translate(3461.544,154) rotate(90)" font-size="18pt">sdhci_pltfm_drv_init</text>
<rect x="3474.57" width="12.6780000000003" y="150" height="325" style="fill:rgb(0,0,255);fill-opacity:0.5;stroke-width:1;stroke:rgb(0,0,0)"/>
<text transform="translate(3475.57,154) rotate(90)" font-size="18pt">hid_init</text>
<rect x="3509.75" width="93.002" y="150" height="325" style="fill:rgb(0,255,0);fill-opacity:0.5;stroke-width:1;stroke:rgb(0,0,0)"/>
<text transform="translate(3515.75,154) rotate(90)" font-size="30pt">fsi_master_aspeed_driver_init</text>
<rect x="3607.718" width="21.8439999999996" y="150" height="325" style="fill:rgb(255,0,20);fill-opacity:0.5;stroke-width:1;stroke:rgb(0,0,0)"/>
<text transform="translate(3608.718,154) rotate(90)" font-size="18pt">inet6_init</text>
<rect x="3630.87" width="10.1240000000003" y="150" height="325" style="fill:rgb(255,255,20);fill-opacity:0.5;stroke-width:1;stroke:rgb(0,0,0)"/>
<text transform="translate(3631.87,154) rotate(90)" font-size="18pt">packet_init</text>
<rect x="3641.044" width="9.38799999999992" y="150" height="325" style="fill:rgb(255,0,255);fill-opacity:0.5;stroke-width:1;stroke:rgb(0,0,0)"/>
<rect x="3650.776" width="10.7760000000007" y="150" height="325" style="fill:rgb(0,255,255);fill-opacity:0.5;stroke-width:1;stroke:rgb(0,0,0)"/>
<text transform="translate(3651.776,154) rotate(90)" font-size="18pt">swp_emulation_init</text>
<rect x="3662.132" width="9.5300000000002" y="150" height="325" style="fill:rgb(0,128,255);fill-opacity:0.5;stroke-width:1;stroke:rgb(0,0,0)"/>
<rect x="3687.044" width="20.0439999999994" y="150" height="325" style="fill:rgb(0,255,128);fill-opacity:0.5;stroke-width:1;stroke:rgb(0,0,0)"/>
<text transform="translate(3688.044,154) rotate(90)" font-size="18pt">init_netconsole</text>
<text transform="translate(0,89) rotate(0)" font-size="30pt">0</text>
<text transform="translate(200,89) rotate(0)" font-size="30pt">0.1</text>
<text transform="translate(400,89) rotate(0)" font-size="30pt">0.2</text>
<text transform="translate(600,89) rotate(0)" font-size="30pt">0.3</text>
<text transform="translate(800,89) rotate(0)" font-size="30pt">0.4</text>
<text transform="translate(1000,89) rotate(0)" font-size="30pt">0.5</text>
<text transform="translate(1200,89) rotate(0)" font-size="30pt">0.6</text>
<text transform="translate(1400,89) rotate(0)" font-size="30pt">0.7</text>
<text transform="translate(1600,89) rotate(0)" font-size="30pt">0.8</text>
<text transform="translate(1800,89) rotate(0)" font-size="30pt">0.9</text>
<text transform="translate(2000,89) rotate(0)" font-size="30pt">1</text>
<text transform="translate(2200,89) rotate(0)" font-size="30pt">1.1</text>
<text transform="translate(2400,89) rotate(0)" font-size="30pt">1.2</text>
<text transform="translate(2600,89) rotate(0)" font-size="30pt">1.3</text>
<text transform="translate(2800,89) rotate(0)" font-size="30pt">1.4</text>
<text transform="translate(3000,89) rotate(0)" font-size="30pt">1.5</text>
<text transform="translate(3200,89) rotate(0)" font-size="30pt">1.6</text>
<text transform="translate(3400,89) rotate(0)" font-size="30pt">1.7</text>
<text transform="translate(3600,89) rotate(0)" font-size="30pt">1.8</text>
</svg>
