<?xml version="1.0" standalone="no"?> 
<svg width="9270.685" height="1000" version="1.1" xmlns="http://www.w3.org/2000/svg">
<rect x="88.405" width="101.715" y="150" height="325" style="fill:rgb(0,0,255);fill-opacity:0.5;stroke-width:1;stroke:rgb(0,0,0)"/>
<text transform="translate(94.405,154) rotate(90)" font-size="30pt">of_platform_default_populate_init</text>
<rect x="192.38" width="23.78" y="150" height="325" style="fill:rgb(0,255,0);fill-opacity:0.5;stroke-width:1;stroke:rgb(0,0,0)"/>
<rect x="243.05" width="161.345" y="150" height="325" style="fill:rgb(255,0,20);fill-opacity:0.5;stroke-width:1;stroke:rgb(0,0,0)"/>
<text transform="translate(249.05,154) rotate(90)" font-size="30pt">tracer_init_tracefs</text>
<rect x="420.465" width="1936.89" y="150" height="325" style="fill:rgb(255,255,20);fill-opacity:0.5;stroke-width:1;stroke:rgb(0,0,0)"/>
<text transform="translate(426.465,154) rotate(90)" font-size="30pt">populate_rootfs</text>
<rect x="2367.585" width="12.3850000000002" y="150" height="325" style="fill:rgb(255,0,255);fill-opacity:0.5;stroke-width:1;stroke:rgb(0,0,0)"/>
<rect x="2419.085" width="3116.205" y="150" height="325" style="fill:rgb(0,255,255);fill-opacity:0.5;stroke-width:1;stroke:rgb(0,0,0)"/>
<text transform="translate(2425.085,154) rotate(90)" font-size="30pt">dw8250_platform_driver_init</text>
<rect x="5538.025" width="39.3699999999999" y="150" height="325" style="fill:rgb(0,128,255);fill-opacity:0.5;stroke-width:1;stroke:rgb(0,0,0)"/>
<text transform="translate(5539.025,154) rotate(90)" font-size="18pt">timeriomem_rng_driver_init</text>
<rect x="5598.375" width="48.3449999999993" y="150" height="325" style="fill:rgb(0,255,128);fill-opacity:0.5;stroke-width:1;stroke:rgb(0,0,0)"/>
<text transform="translate(5599.375,154) rotate(90)" font-size="18pt">loop_init</text>
<rect x="5646.78" width="60.8650000000007" y="150" height="325" style="fill:rgb(255,0,128);fill-opacity:0.5;stroke-width:1;stroke:rgb(0,0,0)"/>
<text transform="translate(5647.78,154) rotate(90)" font-size="18pt">nbd_init</text>
<rect x="5710.155" width="1056.64" y="150" height="325" style="fill:rgb(255,255,128);fill-opacity:0.5;stroke-width:1;stroke:rgb(0,0,0)"/>
<text transform="translate(5716.155,154) rotate(90)" font-size="30pt">aspeed_smc_driver_init</text>
<rect x="6769.45" width="25.3850000000002" y="150" height="325" style="fill:rgb(255,128,255);fill-opacity:0.5;stroke-width:1;stroke:rgb(0,0,0)"/>
<text transform="translate(6770.45,154) rotate(90)" font-size="18pt">fixed_mdio_bus_init</text>
<rect x="6796.24" width="120.565" y="150" height="325" style="fill:rgb(128,255,255);fill-opacity:0.5;stroke-width:1;stroke:rgb(0,0,0)"/>
<text transform="translate(6802.24,154) rotate(90)" font-size="30pt">aspeed_mdio_driver_init</text>
<rect x="6916.885" width="729.885000000001" y="150" height="325" style="fill:rgb(0,0,255);fill-opacity:0.5;stroke-width:1;stroke:rgb(0,0,0)"/>
<text transform="translate(6922.885,154) rotate(90)" font-size="30pt">ftgmac100_driver_init</text>
<rect x="7646.845" width="36.6549999999997" y="150" height="325" style="fill:rgb(0,255,0);fill-opacity:0.5;stroke-width:1;stroke:rgb(0,0,0)"/>
<text transform="translate(7647.845,154) rotate(90)" font-size="18pt">ehci_hcd_init</text>
<rect x="7683.55" width="30.2700000000004" y="150" height="325" style="fill:rgb(255,0,20);fill-opacity:0.5;stroke-width:1;stroke:rgb(0,0,0)"/>
<text transform="translate(7684.55,154) rotate(90)" font-size="18pt">ehci_platform_init</text>
<rect x="7713.895" width="33.8900000000012" y="150" height="325" style="fill:rgb(255,255,20);fill-opacity:0.5;stroke-width:1;stroke:rgb(0,0,0)"/>
<text transform="translate(7714.895,154) rotate(90)" font-size="18pt">usb_storage_driver_init</text>
<rect x="7750.645" width="72.8099999999986" y="150" height="325" style="fill:rgb(255,0,255);fill-opacity:0.5;stroke-width:1;stroke:rgb(0,0,0)"/>
<text transform="translate(7751.645,154) rotate(90)" font-size="18pt">aspeed_rtc_driver_init</text>
<rect x="7824.225" width="19.8799999999983" y="150" height="325" style="fill:rgb(0,255,255);fill-opacity:0.5;stroke-width:1;stroke:rgb(0,0,0)"/>
<rect x="7844.155" width="580.8" y="150" height="325" style="fill:rgb(0,128,255);fill-opacity:0.5;stroke-width:1;stroke:rgb(0,0,0)"/>
<text transform="translate(7850.155,154) rotate(90)" font-size="30pt">aspeed_i2c_bus_driver_init</text>
<rect x="8427.24" width="29.4149999999991" y="150" height="325" style="fill:rgb(0,255,128);fill-opacity:0.5;stroke-width:1;stroke:rgb(0,0,0)"/>
<text transform="translate(8428.24,154) rotate(90)" font-size="18pt">w1_init</text>
<rect x="8462.46" width="49.1649999999991" y="150" height="325" style="fill:rgb(255,0,128);fill-opacity:0.5;stroke-width:1;stroke:rgb(0,0,0)"/>
<text transform="translate(8463.46,154) rotate(90)" font-size="18pt">dm_init</text>
<rect x="8512.685" width="78.125" y="150" height="325" style="fill:rgb(255,255,128);fill-opacity:0.5;stroke-width:1;stroke:rgb(0,0,0)"/>
<text transform="translate(8513.685,154) rotate(90)" font-size="18pt">aspeed_driver_init</text>
<rect x="8592.13" width="59.1849999999995" y="150" height="325" style="fill:rgb(255,128,255);fill-opacity:0.5;stroke-width:1;stroke:rgb(0,0,0)"/>
<text transform="translate(8593.13,154) rotate(90)" font-size="18pt">sdhci_drv_init</text>
<rect x="8651.36" width="31.6000000000004" y="150" height="325" style="fill:rgb(128,255,255);fill-opacity:0.5;stroke-width:1;stroke:rgb(0,0,0)"/>
<text transform="translate(8652.36,154) rotate(90)" font-size="18pt">sdhci_pltfm_drv_init</text>
<rect x="8686.425" width="31.6950000000015" y="150" height="325" style="fill:rgb(0,0,255);fill-opacity:0.5;stroke-width:1;stroke:rgb(0,0,0)"/>
<text transform="translate(8687.425,154) rotate(90)" font-size="18pt">hid_init</text>
<rect x="8774.375" width="232.504999999999" y="150" height="325" style="fill:rgb(0,255,0);fill-opacity:0.5;stroke-width:1;stroke:rgb(0,0,0)"/>
<text transform="translate(8780.375,154) rotate(90)" font-size="30pt">fsi_master_aspeed_driver_init</text>
<rect x="9019.295" width="54.6100000000006" y="150" height="325" style="fill:rgb(255,0,20);fill-opacity:0.5;stroke-width:1;stroke:rgb(0,0,0)"/>
<text transform="translate(9020.295,154) rotate(90)" font-size="18pt">inet6_init</text>
<rect x="9077.175" width="25.3100000000013" y="150" height="325" style="fill:rgb(255,255,20);fill-opacity:0.5;stroke-width:1;stroke:rgb(0,0,0)"/>
<text transform="translate(9078.175,154) rotate(90)" font-size="18pt">packet_init</text>
<rect x="9102.61" width="23.4699999999993" y="150" height="325" style="fill:rgb(255,0,255);fill-opacity:0.5;stroke-width:1;stroke:rgb(0,0,0)"/>
<rect x="9126.94" width="26.9400000000005" y="150" height="325" style="fill:rgb(0,255,255);fill-opacity:0.5;stroke-width:1;stroke:rgb(0,0,0)"/>
<text transform="translate(9127.94,154) rotate(90)" font-size="18pt">swp_emulation_init</text>
<rect x="9155.33" width="23.8250000000007" y="150" height="325" style="fill:rgb(0,128,255);fill-opacity:0.5;stroke-width:1;stroke:rgb(0,0,0)"/>
<rect x="9217.61" width="50.1099999999988" y="150" height="325" style="fill:rgb(0,255,128);fill-opacity:0.5;stroke-width:1;stroke:rgb(0,0,0)"/>
<text transform="translate(9218.61,154) rotate(90)" font-size="18pt">init_netconsole</text>
<text transform="translate(0,89) rotate(0)" font-size="30pt">0</text>
<text transform="translate(500,89) rotate(0)" font-size="30pt">0.1</text>
<text transform="translate(1000,89) rotate(0)" font-size="30pt">0.2</text>
<text transform="translate(1500,89) rotate(0)" font-size="30pt">0.3</text>
<text transform="translate(2000,89) rotate(0)" font-size="30pt">0.4</text>
<text transform="translate(2500,89) rotate(0)" font-size="30pt">0.5</text>
<text transform="translate(3000,89) rotate(0)" font-size="30pt">0.6</text>
<text transform="translate(3500,89) rotate(0)" font-size="30pt">0.7</text>
<text transform="translate(4000,89) rotate(0)" font-size="30pt">0.8</text>
<text transform="translate(4500,89) rotate(0)" font-size="30pt">0.9</text>
<text transform="translate(5000,89) rotate(0)" font-size="30pt">1</text>
<text transform="translate(5500,89) rotate(0)" font-size="30pt">1.1</text>
<text transform="translate(6000,89) rotate(0)" font-size="30pt">1.2</text>
<text transform="translate(6500,89) rotate(0)" font-size="30pt">1.3</text>
<text transform="translate(7000,89) rotate(0)" font-size="30pt">1.4</text>
<text transform="translate(7500,89) rotate(0)" font-size="30pt">1.5</text>
<text transform="translate(8000,89) rotate(0)" font-size="30pt">1.6</text>
<text transform="translate(8500,89) rotate(0)" font-size="30pt">1.7</text>
<text transform="translate(9000,89) rotate(0)" font-size="30pt">1.8</text>
</svg>
