<?xml version="1.0" standalone="no"?> 
<svg width="2800.6739385" height="1000" version="1.1" xmlns="http://www.w3.org/2000/svg">
<rect x="26.5215" width="30.5145" y="150" height="325" style="fill:rgb(0,0,255);fill-opacity:0.5;stroke-width:1;stroke:rgb(0,0,0)"/>
<text transform="translate(32.5215,154) rotate(90)" font-size="30pt">of_platform_default_populate_init</text>
<rect x="57.714" width="7.13400000000001" y="150" height="325" style="fill:rgb(0,255,0);fill-opacity:0.5;stroke-width:1;stroke:rgb(0,0,0)"/>
<rect x="72.915" width="48.4035" y="150" height="325" style="fill:rgb(255,0,20);fill-opacity:0.5;stroke-width:1;stroke:rgb(0,0,0)"/>
<text transform="translate(78.915,154) rotate(90)" font-size="30pt">tracer_init_tracefs</text>
<rect x="126.1395" width="581.067" y="150" height="325" style="fill:rgb(255,255,20);fill-opacity:0.5;stroke-width:1;stroke:rgb(0,0,0)"/>
<text transform="translate(132.1395,154) rotate(90)" font-size="30pt">populate_rootfs</text>
<rect x="710.2755" width="3.71549999999991" y="150" height="325" style="fill:rgb(255,0,255);fill-opacity:0.5;stroke-width:1;stroke:rgb(0,0,0)"/>
<rect x="725.7255" width="934.8615" y="150" height="325" style="fill:rgb(0,255,255);fill-opacity:0.5;stroke-width:1;stroke:rgb(0,0,0)"/>
<text transform="translate(731.7255,154) rotate(90)" font-size="30pt">dw8250_platform_driver_init</text>
<rect x="1661.4075" width="11.8109999999997" y="150" height="325" style="fill:rgb(0,128,255);fill-opacity:0.5;stroke-width:1;stroke:rgb(0,0,0)"/>
<text transform="translate(1662.4075,154) rotate(90)" font-size="18pt">timeriomem_rng_driver_init</text>
<rect x="1679.5125" width="14.5034999999998" y="150" height="325" style="fill:rgb(0,255,128);fill-opacity:0.5;stroke-width:1;stroke:rgb(0,0,0)"/>
<text transform="translate(1680.5125,154) rotate(90)" font-size="18pt">loop_init</text>
<rect x="1694.034" width="18.2594999999999" y="150" height="325" style="fill:rgb(255,0,128);fill-opacity:0.5;stroke-width:1;stroke:rgb(0,0,0)"/>
<text transform="translate(1695.034,154) rotate(90)" font-size="18pt">nbd_init</text>
<rect x="1713.0465" width="316.992" y="150" height="325" style="fill:rgb(255,255,128);fill-opacity:0.5;stroke-width:1;stroke:rgb(0,0,0)"/>
<text transform="translate(1719.0465,154) rotate(90)" font-size="30pt">aspeed_smc_driver_init</text>
<rect x="2030.835" width="7.61549999999988" y="150" height="325" style="fill:rgb(255,128,255);fill-opacity:0.5;stroke-width:1;stroke:rgb(0,0,0)"/>
<text transform="translate(2031.835,154) rotate(90)" font-size="18pt">fixed_mdio_bus_init</text>
<rect x="2038.872" width="36.1694999999997" y="150" height="325" style="fill:rgb(128,255,255);fill-opacity:0.5;stroke-width:1;stroke:rgb(0,0,0)"/>
<text transform="translate(2044.872,154) rotate(90)" font-size="30pt">aspeed_mdio_driver_init</text>
<rect x="2075.0655" width="218.9655" y="150" height="325" style="fill:rgb(0,0,255);fill-opacity:0.5;stroke-width:1;stroke:rgb(0,0,0)"/>
<text transform="translate(2081.0655,154) rotate(90)" font-size="30pt">ftgmac100_driver_init</text>
<rect x="2294.0535" width="10.9964999999997" y="150" height="325" style="fill:rgb(0,255,0);fill-opacity:0.5;stroke-width:1;stroke:rgb(0,0,0)"/>
<text transform="translate(2295.0535,154) rotate(90)" font-size="18pt">ehci_hcd_init</text>
<rect x="2305.065" width="9.08100000000059" y="150" height="325" style="fill:rgb(255,0,20);fill-opacity:0.5;stroke-width:1;stroke:rgb(0,0,0)"/>
<text transform="translate(2306.065,154) rotate(90)" font-size="18pt">ehci_platform_init</text>
<rect x="2314.1685" width="10.1670000000004" y="150" height="325" style="fill:rgb(255,255,20);fill-opacity:0.5;stroke-width:1;stroke:rgb(0,0,0)"/>
<text transform="translate(2315.1685,154) rotate(90)" font-size="18pt">usb_storage_driver_init</text>
<rect x="2325.1935" width="21.8429999999994" y="150" height="325" style="fill:rgb(255,0,255);fill-opacity:0.5;stroke-width:1;stroke:rgb(0,0,0)"/>
<text transform="translate(2326.1935,154) rotate(90)" font-size="18pt">aspeed_rtc_driver_init</text>
<rect x="2347.2675" width="5.96399999999994" y="150" height="325" style="fill:rgb(0,255,255);fill-opacity:0.5;stroke-width:1;stroke:rgb(0,0,0)"/>
<rect x="2353.2465" width="174.24" y="150" height="325" style="fill:rgb(0,128,255);fill-opacity:0.5;stroke-width:1;stroke:rgb(0,0,0)"/>
<text transform="translate(2359.2465,154) rotate(90)" font-size="30pt">aspeed_i2c_bus_driver_init</text>
<rect x="2528.172" width="8.82449999999972" y="150" height="325" style="fill:rgb(0,255,128);fill-opacity:0.5;stroke-width:1;stroke:rgb(0,0,0)"/>
<text transform="translate(2529.172,154) rotate(90)" font-size="18pt">w1_init</text>
<rect x="2538.738" width="14.7494999999999" y="150" height="325" style="fill:rgb(255,0,128);fill-opacity:0.5;stroke-width:1;stroke:rgb(0,0,0)"/>
<text transform="translate(2539.738,154) rotate(90)" font-size="18pt">dm_init</text>
<rect x="2553.8055" width="23.4375" y="150" height="325" style="fill:rgb(255,255,128);fill-opacity:0.5;stroke-width:1;stroke:rgb(0,0,0)"/>
<text transform="translate(2554.8055,154) rotate(90)" font-size="18pt">aspeed_driver_init</text>
<rect x="2577.639" width="17.7554999999998" y="150" height="325" style="fill:rgb(255,128,255);fill-opacity:0.5;stroke-width:1;stroke:rgb(0,0,0)"/>
<text transform="translate(2578.639,154) rotate(90)" font-size="18pt">sdhci_drv_init</text>
<rect x="2595.408" width="9.48000000000002" y="150" height="325" style="fill:rgb(128,255,255);fill-opacity:0.5;stroke-width:1;stroke:rgb(0,0,0)"/>
<text transform="translate(2596.408,154) rotate(90)" font-size="18pt">sdhci_pltfm_drv_init</text>
<rect x="2605.9275" width="9.50850000000037" y="150" height="325" style="fill:rgb(0,0,255);fill-opacity:0.5;stroke-width:1;stroke:rgb(0,0,0)"/>
<text transform="translate(2606.9275,154) rotate(90)" font-size="18pt">hid_init</text>
<rect x="2632.3125" width="69.7514999999999" y="150" height="325" style="fill:rgb(0,255,0);fill-opacity:0.5;stroke-width:1;stroke:rgb(0,0,0)"/>
<text transform="translate(2638.3125,154) rotate(90)" font-size="30pt">fsi_master_aspeed_driver_init</text>
<rect x="2705.7885" width="16.3829999999998" y="150" height="325" style="fill:rgb(255,0,20);fill-opacity:0.5;stroke-width:1;stroke:rgb(0,0,0)"/>
<text transform="translate(2706.7885,154) rotate(90)" font-size="18pt">inet6_init</text>
<rect x="2723.1525" width="7.5930000000003" y="150" height="325" style="fill:rgb(255,255,20);fill-opacity:0.5;stroke-width:1;stroke:rgb(0,0,0)"/>
<text transform="translate(2724.1525,154) rotate(90)" font-size="18pt">packet_init</text>
<rect x="2730.783" width="7.04100000000017" y="150" height="325" style="fill:rgb(255,0,255);fill-opacity:0.5;stroke-width:1;stroke:rgb(0,0,0)"/>
<rect x="2738.082" width="8.08199999999988" y="150" height="325" style="fill:rgb(0,255,255);fill-opacity:0.5;stroke-width:1;stroke:rgb(0,0,0)"/>
<text transform="translate(2739.082,154) rotate(90)" font-size="18pt">swp_emulation_init</text>
<rect x="2746.599" width="7.14750000000049" y="150" height="325" style="fill:rgb(0,128,255);fill-opacity:0.5;stroke-width:1;stroke:rgb(0,0,0)"/>
<rect x="2765.283" width="15.0329999999994" y="150" height="325" style="fill:rgb(0,255,128);fill-opacity:0.5;stroke-width:1;stroke:rgb(0,0,0)"/>
<text transform="translate(2766.283,154) rotate(90)" font-size="18pt">init_netconsole</text>
<text transform="translate(0,89) rotate(0)" font-size="30pt">0</text>
<text transform="translate(150,89) rotate(0)" font-size="30pt">0.1</text>
<text transform="translate(300,89) rotate(0)" font-size="30pt">0.2</text>
<text transform="translate(450,89) rotate(0)" font-size="30pt">0.3</text>
<text transform="translate(600,89) rotate(0)" font-size="30pt">0.4</text>
<text transform="translate(750,89) rotate(0)" font-size="30pt">0.5</text>
<text transform="translate(900,89) rotate(0)" font-size="30pt">0.6</text>
<text transform="translate(1050,89) rotate(0)" font-size="30pt">0.7</text>
<text transform="translate(1200,89) rotate(0)" font-size="30pt">0.8</text>
<text transform="translate(1350,89) rotate(0)" font-size="30pt">0.9</text>
<text transform="translate(1500,89) rotate(0)" font-size="30pt">1</text>
<text transform="translate(1650,89) rotate(0)" font-size="30pt">1.1</text>
<text transform="translate(1800,89) rotate(0)" font-size="30pt">1.2</text>
<text transform="translate(1950,89) rotate(0)" font-size="30pt">1.3</text>
<text transform="translate(2100,89) rotate(0)" font-size="30pt">1.4</text>
<text transform="translate(2250,89) rotate(0)" font-size="30pt">1.5</text>
<text transform="translate(2400,89) rotate(0)" font-size="30pt">1.6</text>
<text transform="translate(2550,89) rotate(0)" font-size="30pt">1.7</text>
<text transform="translate(2700,89) rotate(0)" font-size="30pt">1.8</text>
</svg>
