<?xml version="1.0" standalone="no"?> 
<svg width="3037.2937635" height="1000" version="1.1" xmlns="http://www.w3.org/2000/svg">
<rect x="26.3715" width="4.722" y="150" height="325" style="fill:rgb(0,0,255);fill-opacity:0.5;stroke-width:1;stroke:rgb(0,0,0)"/>
<rect x="39.642" width="37.1145" y="150" height="325" style="fill:rgb(0,255,0);fill-opacity:0.5;stroke-width:1;stroke:rgb(0,0,0)"/>
<text transform="translate(45.642,154) rotate(90)" font-size="30pt">of_platform_default_populate_init</text>
<rect x="77.4345" width="7.41149999999999" y="150" height="325" style="fill:rgb(255,0,20);fill-opacity:0.5;stroke-width:1;stroke:rgb(0,0,0)"/>
<rect x="97.491" width="40.11" y="150" height="325" style="fill:rgb(255,255,20);fill-opacity:0.5;stroke-width:1;stroke:rgb(0,0,0)"/>
<text transform="translate(103.491,154) rotate(90)" font-size="30pt">tracer_init_tracefs</text>
<rect x="139.41" width="4.30799999999999" y="150" height="325" style="fill:rgb(255,0,255);fill-opacity:0.5;stroke-width:1;stroke:rgb(0,0,0)"/>
<rect x="143.9685" width="3.40800000000002" y="150" height="325" style="fill:rgb(0,255,255);fill-opacity:0.5;stroke-width:1;stroke:rgb(0,0,0)"/>
<rect x="150.723" width="17.5965" y="150" height="325" style="fill:rgb(0,128,255);fill-opacity:0.5;stroke-width:1;stroke:rgb(0,0,0)"/>
<text transform="translate(151.723,154) rotate(90)" font-size="18pt">kswapd_init</text>
<rect x="168.7845" width="6.69900000000001" y="150" height="325" style="fill:rgb(0,255,128);fill-opacity:0.5;stroke-width:1;stroke:rgb(0,0,0)"/>
<rect x="183.294" width="2.922" y="150" height="325" style="fill:rgb(255,0,128);fill-opacity:0.5;stroke-width:1;stroke:rgb(0,0,0)"/>
<rect x="194.6265" width="1009.3365" y="150" height="325" style="fill:rgb(255,255,128);fill-opacity:0.5;stroke-width:1;stroke:rgb(0,0,0)"/>
<text transform="translate(200.6265,154) rotate(90)" font-size="30pt">dw8250_platform_driver_init</text>
<rect x="1204.974" width="11.9535000000001" y="150" height="325" style="fill:rgb(255,128,255);fill-opacity:0.5;stroke-width:1;stroke:rgb(0,0,0)"/>
<text transform="translate(1205.974,154) rotate(90)" font-size="18pt">timeriomem_rng_driver_init</text>
<rect x="1222.6305" width="44.0445" y="150" height="325" style="fill:rgb(128,255,255);fill-opacity:0.5;stroke-width:1;stroke:rgb(0,0,0)"/>
<text transform="translate(1228.6305,154) rotate(90)" font-size="30pt">aspeed_gfx_platform_driver_init</text>
<rect x="1266.984" width="14.5125" y="150" height="325" style="fill:rgb(0,0,255);fill-opacity:0.5;stroke-width:1;stroke:rgb(0,0,0)"/>
<text transform="translate(1267.984,154) rotate(90)" font-size="18pt">loop_init</text>
<rect x="1281.5355" width="24.21" y="150" height="325" style="fill:rgb(0,255,0);fill-opacity:0.5;stroke-width:1;stroke:rgb(0,0,0)"/>
<text transform="translate(1282.5355,154) rotate(90)" font-size="18pt">nbd_init</text>
<rect x="1306.5435" width="304.4775" y="150" height="325" style="fill:rgb(255,0,20);fill-opacity:0.5;stroke-width:1;stroke:rgb(0,0,0)"/>
<text transform="translate(1312.5435,154) rotate(90)" font-size="30pt">aspeed_spi_driver_init</text>
<rect x="1613.1255" width="15.2565" y="150" height="325" style="fill:rgb(255,255,20);fill-opacity:0.5;stroke-width:1;stroke:rgb(0,0,0)"/>
<text transform="translate(1614.1255,154) rotate(90)" font-size="18pt">aspeed_mdio_driver_init</text>
<rect x="1628.4405" width="539.94" y="150" height="325" style="fill:rgb(255,0,255);fill-opacity:0.5;stroke-width:1;stroke:rgb(0,0,0)"/>
<text transform="translate(1634.4405,154) rotate(90)" font-size="30pt">ftgmac100_driver_init</text>
<rect x="2168.427" width="10.9949999999999" y="150" height="325" style="fill:rgb(0,255,255);fill-opacity:0.5;stroke-width:1;stroke:rgb(0,0,0)"/>
<text transform="translate(2169.427,154) rotate(90)" font-size="18pt">ehci_hcd_init</text>
<rect x="2179.446" width="335.6745" y="150" height="325" style="fill:rgb(0,128,255);fill-opacity:0.5;stroke-width:1;stroke:rgb(0,0,0)"/>
<text transform="translate(2185.446,154) rotate(90)" font-size="30pt">ehci_platform_init</text>
<rect x="2515.167" width="10.1684999999998" y="150" height="325" style="fill:rgb(0,255,128);fill-opacity:0.5;stroke-width:1;stroke:rgb(0,0,0)"/>
<text transform="translate(2516.167,154) rotate(90)" font-size="18pt">usb_storage_driver_init</text>
<rect x="2526.3885" width="21.9614999999999" y="150" height="325" style="fill:rgb(255,0,128);fill-opacity:0.5;stroke-width:1;stroke:rgb(0,0,0)"/>
<text transform="translate(2527.3885,154) rotate(90)" font-size="18pt">aspeed_rtc_driver_init</text>
<rect x="2548.602" width="7.20449999999983" y="150" height="325" style="fill:rgb(255,255,128);fill-opacity:0.5;stroke-width:1;stroke:rgb(0,0,0)"/>
<rect x="2555.8275" width="172.14" y="150" height="325" style="fill:rgb(255,128,255);fill-opacity:0.5;stroke-width:1;stroke:rgb(0,0,0)"/>
<text transform="translate(2561.8275,154) rotate(90)" font-size="30pt">aspeed_i2c_bus_driver_init</text>
<rect x="2728.5375" width="14.703" y="150" height="325" style="fill:rgb(128,255,255);fill-opacity:0.5;stroke-width:1;stroke:rgb(0,0,0)"/>
<text transform="translate(2729.5375,154) rotate(90)" font-size="18pt">aspeed_video_driver_init</text>
<rect x="2743.293" width="8.77799999999979" y="150" height="325" style="fill:rgb(0,0,255);fill-opacity:0.5;stroke-width:1;stroke:rgb(0,0,0)"/>
<text transform="translate(2744.293,154) rotate(90)" font-size="18pt">w1_init</text>
<rect x="2754.3555" width="14.8889999999997" y="150" height="325" style="fill:rgb(0,255,0);fill-opacity:0.5;stroke-width:1;stroke:rgb(0,0,0)"/>
<text transform="translate(2755.3555,154) rotate(90)" font-size="18pt">dm_init</text>
<rect x="2770.3095" width="17.7269999999999" y="150" height="325" style="fill:rgb(255,0,20);fill-opacity:0.5;stroke-width:1;stroke:rgb(0,0,0)"/>
<text transform="translate(2771.3095,154) rotate(90)" font-size="18pt">sdhci_drv_init</text>
<rect x="2788.062" width="9.50999999999976" y="150" height="325" style="fill:rgb(255,255,20);fill-opacity:0.5;stroke-width:1;stroke:rgb(0,0,0)"/>
<text transform="translate(2789.062,154) rotate(90)" font-size="18pt">sdhci_pltfm_drv_init</text>
<rect x="2798.8575" width="9.41550000000007" y="150" height="325" style="fill:rgb(255,0,255);fill-opacity:0.5;stroke-width:1;stroke:rgb(0,0,0)"/>
<text transform="translate(2799.8575,154) rotate(90)" font-size="18pt">hid_init</text>
<rect x="2825.2965" width="10.6530000000002" y="150" height="325" style="fill:rgb(0,255,255);fill-opacity:0.5;stroke-width:1;stroke:rgb(0,0,0)"/>
<text transform="translate(2826.2965,154) rotate(90)" font-size="18pt">bmp280_spi_driver_init</text>
<rect x="2836.164" width="69.6839999999997" y="150" height="325" style="fill:rgb(0,128,255);fill-opacity:0.5;stroke-width:1;stroke:rgb(0,0,0)"/>
<text transform="translate(2842.164,154) rotate(90)" font-size="30pt">fsi_master_aspeed_driver_init</text>
<rect x="2908.7655" width="24.4769999999999" y="150" height="325" style="fill:rgb(0,255,128);fill-opacity:0.5;stroke-width:1;stroke:rgb(0,0,0)"/>
<text transform="translate(2909.7655,154) rotate(90)" font-size="18pt">inet6_init</text>
<rect x="2933.6355" width="8.49150000000009" y="150" height="325" style="fill:rgb(255,0,128);fill-opacity:0.5;stroke-width:1;stroke:rgb(0,0,0)"/>
<text transform="translate(2934.6355,154) rotate(90)" font-size="18pt">packet_init</text>
<rect x="2942.1825" width="7.10700000000043" y="150" height="325" style="fill:rgb(255,255,128);fill-opacity:0.5;stroke-width:1;stroke:rgb(0,0,0)"/>
<rect x="2949.4635" width="8.04600000000028" y="150" height="325" style="fill:rgb(255,128,255);fill-opacity:0.5;stroke-width:1;stroke:rgb(0,0,0)"/>
<text transform="translate(2950.4635,154) rotate(90)" font-size="18pt">swp_emulation_init</text>
<rect x="2960.52" width="7.48500000000013" y="150" height="325" style="fill:rgb(128,255,255);fill-opacity:0.5;stroke-width:1;stroke:rgb(0,0,0)"/>
<rect x="2978.0355" width="21.2025000000003" y="150" height="325" style="fill:rgb(0,0,255);fill-opacity:0.5;stroke-width:1;stroke:rgb(0,0,0)"/>
<text transform="translate(2979.0355,154) rotate(90)" font-size="18pt">deferred_probe_initcall</text>
<rect x="2999.889" width="15.0075000000002" y="150" height="325" style="fill:rgb(0,255,0);fill-opacity:0.5;stroke-width:1;stroke:rgb(0,0,0)"/>
<text transform="translate(3000.889,154) rotate(90)" font-size="18pt">init_netconsole</text>
<text transform="translate(0,89) rotate(0)" font-size="30pt">0</text>
<text transform="translate(150,89) rotate(0)" font-size="30pt">0.1</text>
<text transform="translate(300,89) rotate(0)" font-size="30pt">0.2</text>
<text transform="translate(450,89) rotate(0)" font-size="30pt">0.3</text>
<text transform="translate(600,89) rotate(0)" font-size="30pt">0.4</text>
<text transform="translate(750,89) rotate(0)" font-size="30pt">0.5</text>
<text transform="translate(900,89) rotate(0)" font-size="30pt">0.6</text>
<text transform="translate(1050,89) rotate(0)" font-size="30pt">0.7</text>
<text transform="translate(1200,89) rotate(0)" font-size="30pt">0.8</text>
<text transform="translate(1350,89) rotate(0)" font-size="30pt">0.9</text>
<text transform="translate(1500,89) rotate(0)" font-size="30pt">1</text>
<text transform="translate(1650,89) rotate(0)" font-size="30pt">1.1</text>
<text transform="translate(1800,89) rotate(0)" font-size="30pt">1.2</text>
<text transform="translate(1950,89) rotate(0)" font-size="30pt">1.3</text>
<text transform="translate(2100,89) rotate(0)" font-size="30pt">1.4</text>
<text transform="translate(2250,89) rotate(0)" font-size="30pt">1.5</text>
<text transform="translate(2400,89) rotate(0)" font-size="30pt">1.6</text>
<text transform="translate(2550,89) rotate(0)" font-size="30pt">1.7</text>
<text transform="translate(2700,89) rotate(0)" font-size="30pt">1.8</text>
<text transform="translate(2850,89) rotate(0)" font-size="30pt">1.9</text>
<text transform="translate(3000,89) rotate(0)" font-size="30pt">2</text>
</svg>
