<?xml version="1.0" standalone="no"?> 
<svg width="2575.882839" height="1000" version="1.1" xmlns="http://www.w3.org/2000/svg">
<rect x="20.13" width="84.6465" y="150" height="325" style="fill:rgb(0,0,255);fill-opacity:0.5;stroke-width:1;stroke:rgb(0,0,0)"/>
<text transform="translate(26.13,154) rotate(90)" font-size="30pt">init_graph_trace</text>
<rect x="104.943" width="5.83649999999999" y="150" height="325" style="fill:rgb(0,255,0);fill-opacity:0.5;stroke-width:1;stroke:rgb(0,0,0)"/>
<rect x="117.2475" width="7.04399999999998" y="150" height="325" style="fill:rgb(255,0,20);fill-opacity:0.5;stroke-width:1;stroke:rgb(0,0,0)"/>
<rect x="124.3425" width="3.66000000000001" y="150" height="325" style="fill:rgb(255,255,20);fill-opacity:0.5;stroke-width:1;stroke:rgb(0,0,0)"/>
<rect x="134.6745" width="164.214" y="150" height="325" style="fill:rgb(255,0,255);fill-opacity:0.5;stroke-width:1;stroke:rgb(0,0,0)"/>
<text transform="translate(140.6745,154) rotate(90)" font-size="30pt">of_platform_default_populate_init</text>
<rect x="302.064" width="27.753" y="150" height="325" style="fill:rgb(0,255,255);fill-opacity:0.5;stroke-width:1;stroke:rgb(0,0,0)"/>
<text transform="translate(303.064,154) rotate(90)" font-size="18pt">param_sysfs_init</text>
<rect x="354.453" width="197.028" y="150" height="325" style="fill:rgb(0,128,255);fill-opacity:0.5;stroke-width:1;stroke:rgb(0,0,0)"/>
<text transform="translate(360.453,154) rotate(90)" font-size="30pt">tracer_init_tracefs</text>
<rect x="555.2865" width="4.53150000000005" y="150" height="325" style="fill:rgb(0,255,128);fill-opacity:0.5;stroke-width:1;stroke:rgb(0,0,0)"/>
<rect x="560.379" width="3.78899999999999" y="150" height="325" style="fill:rgb(255,0,128);fill-opacity:0.5;stroke-width:1;stroke:rgb(0,0,0)"/>
<rect x="565.0665" width="1255.995" y="150" height="325" style="fill:rgb(255,255,128);fill-opacity:0.5;stroke-width:1;stroke:rgb(0,0,0)"/>
<text transform="translate(571.0665,154) rotate(90)" font-size="30pt">populate_rootfs</text>
<rect x="1831.74" width="18.1514999999999" y="150" height="325" style="fill:rgb(255,128,255);fill-opacity:0.5;stroke-width:1;stroke:rgb(0,0,0)"/>
<text transform="translate(1832.74,154) rotate(90)" font-size="18pt">slab_sysfs_init</text>
<rect x="1851.771" width="2.86349999999993" y="150" height="325" style="fill:rgb(128,255,255);fill-opacity:0.5;stroke-width:1;stroke:rgb(0,0,0)"/>
<rect x="1862.577" width="5.99400000000014" y="150" height="325" style="fill:rgb(0,0,255);fill-opacity:0.5;stroke-width:1;stroke:rgb(0,0,0)"/>
<rect x="1874.793" width="8.37749999999983" y="150" height="325" style="fill:rgb(0,255,0);fill-opacity:0.5;stroke-width:1;stroke:rgb(0,0,0)"/>
<text transform="translate(1875.793,154) rotate(90)" font-size="18pt">aspeed_g6_clk_driver_init</text>
<rect x="1883.91" width="2.13300000000004" y="150" height="325" style="fill:rgb(255,0,20);fill-opacity:0.5;stroke-width:1;stroke:rgb(0,0,0)"/>
<rect x="1887.0645" width="6.11999999999989" y="150" height="325" style="fill:rgb(255,255,20);fill-opacity:0.5;stroke-width:1;stroke:rgb(0,0,0)"/>
<rect x="1893.9645" width="46.4445000000001" y="150" height="325" style="fill:rgb(255,0,255);fill-opacity:0.5;stroke-width:1;stroke:rgb(0,0,0)"/>
<text transform="translate(1899.9645,154) rotate(90)" font-size="30pt">dw8250_platform_driver_init</text>
<rect x="1940.469" width="2.25150000000031" y="150" height="325" style="fill:rgb(0,255,255);fill-opacity:0.5;stroke-width:1;stroke:rgb(0,0,0)"/>
<rect x="1947.1065" width="35.2635" y="150" height="325" style="fill:rgb(0,128,255);fill-opacity:0.5;stroke-width:1;stroke:rgb(0,0,0)"/>
<text transform="translate(1953.1065,154) rotate(90)" font-size="30pt">loop_init</text>
<rect x="1982.421" width="69.7065000000002" y="150" height="325" style="fill:rgb(0,255,128);fill-opacity:0.5;stroke-width:1;stroke:rgb(0,0,0)"/>
<text transform="translate(1988.421,154) rotate(90)" font-size="30pt">nbd_init</text>
<rect x="2054.2485" width="241.9185" y="150" height="325" style="fill:rgb(255,0,128);fill-opacity:0.5;stroke-width:1;stroke:rgb(0,0,0)"/>
<text transform="translate(2060.2485,154) rotate(90)" font-size="30pt">aspeed_smc_driver_init</text>
<rect x="2298.579" width="2.83350000000019" y="150" height="325" style="fill:rgb(255,255,128);fill-opacity:0.5;stroke-width:1;stroke:rgb(0,0,0)"/>
<rect x="2302.764" width="22.2960000000003" y="150" height="325" style="fill:rgb(255,128,255);fill-opacity:0.5;stroke-width:1;stroke:rgb(0,0,0)"/>
<text transform="translate(2303.764,154) rotate(90)" font-size="18pt">aspeed_mdio_driver_init</text>
<rect x="2325.114" width="38.2905000000005" y="150" height="325" style="fill:rgb(128,255,255);fill-opacity:0.5;stroke-width:1;stroke:rgb(0,0,0)"/>
<text transform="translate(2331.114,154) rotate(90)" font-size="30pt">ftgmac100_driver_init</text>
<rect x="2367.819" width="2.16449999999986" y="150" height="325" style="fill:rgb(0,0,255);fill-opacity:0.5;stroke-width:1;stroke:rgb(0,0,0)"/>
<rect x="2370.8445" width="42.7170000000001" y="150" height="325" style="fill:rgb(0,255,0);fill-opacity:0.5;stroke-width:1;stroke:rgb(0,0,0)"/>
<text transform="translate(2376.8445,154) rotate(90)" font-size="30pt">aspeed_i2c_bus_driver_init</text>
<rect x="2434.8285" width="48.2324999999996" y="150" height="325" style="fill:rgb(255,0,20);fill-opacity:0.5;stroke-width:1;stroke:rgb(0,0,0)"/>
<text transform="translate(2440.8285,154) rotate(90)" font-size="30pt">fsi_master_aspeed_driver_init</text>
<rect x="2489.6685" width="2.38500000000022" y="150" height="325" style="fill:rgb(255,255,20);fill-opacity:0.5;stroke-width:1;stroke:rgb(0,0,0)"/>
<rect x="2492.112" width="2.89799999999968" y="150" height="325" style="fill:rgb(255,0,255);fill-opacity:0.5;stroke-width:1;stroke:rgb(0,0,0)"/>
<rect x="2495.7195" width="7.98749999999973" y="150" height="325" style="fill:rgb(0,255,255);fill-opacity:0.5;stroke-width:1;stroke:rgb(0,0,0)"/>
<text transform="translate(2496.7195,154) rotate(90)" font-size="18pt">inet6_init</text>
<rect x="2510.388" width="44.0430000000001" y="150" height="325" style="fill:rgb(0,128,255);fill-opacity:0.5;stroke-width:1;stroke:rgb(0,0,0)"/>
<text transform="translate(2516.388,154) rotate(90)" font-size="30pt">clk_debug_init</text>
<text transform="translate(0,89) rotate(0)" font-size="30pt">0</text>
<text transform="translate(150,89) rotate(0)" font-size="30pt">0.1</text>
<text transform="translate(300,89) rotate(0)" font-size="30pt">0.2</text>
<text transform="translate(450,89) rotate(0)" font-size="30pt">0.3</text>
<text transform="translate(600,89) rotate(0)" font-size="30pt">0.4</text>
<text transform="translate(750,89) rotate(0)" font-size="30pt">0.5</text>
<text transform="translate(900,89) rotate(0)" font-size="30pt">0.6</text>
<text transform="translate(1050,89) rotate(0)" font-size="30pt">0.7</text>
<text transform="translate(1200,89) rotate(0)" font-size="30pt">0.8</text>
<text transform="translate(1350,89) rotate(0)" font-size="30pt">0.9</text>
<text transform="translate(1500,89) rotate(0)" font-size="30pt">1</text>
<text transform="translate(1650,89) rotate(0)" font-size="30pt">1.1</text>
<text transform="translate(1800,89) rotate(0)" font-size="30pt">1.2</text>
<text transform="translate(1950,89) rotate(0)" font-size="30pt">1.3</text>
<text transform="translate(2100,89) rotate(0)" font-size="30pt">1.4</text>
<text transform="translate(2250,89) rotate(0)" font-size="30pt">1.5</text>
<text transform="translate(2400,89) rotate(0)" font-size="30pt">1.6</text>
<text transform="translate(2550,89) rotate(0)" font-size="30pt">1.7</text>
</svg>
