<?xml version="1.0" standalone="no"?> 
<svg width="2184.216231" height="1000" version="1.1" xmlns="http://www.w3.org/2000/svg">
<rect x="22.0905" width="29.067" y="150" height="325" style="fill:rgb(0,0,255);fill-opacity:0.5;stroke-width:1;stroke:rgb(0,0,0)"/>
<text transform="translate(23.0905,154) rotate(90)" font-size="18pt">of_platform_default_populate_init</text>
<rect x="51.7905" width="6.8745" y="150" height="325" style="fill:rgb(0,255,0);fill-opacity:0.5;stroke-width:1;stroke:rgb(0,0,0)"/>
<rect x="70.1025" width="57.72" y="150" height="325" style="fill:rgb(255,0,20);fill-opacity:0.5;stroke-width:1;stroke:rgb(0,0,0)"/>
<text transform="translate(76.1025,154) rotate(90)" font-size="30pt">populate_rootfs</text>
<rect x="130.6185" width="3.49350000000001" y="150" height="325" style="fill:rgb(255,255,20);fill-opacity:0.5;stroke-width:1;stroke:rgb(0,0,0)"/>
<rect x="137.502" width="2.05049999999997" y="150" height="325" style="fill:rgb(255,0,255);fill-opacity:0.5;stroke-width:1;stroke:rgb(0,0,0)"/>
<rect x="145.344" width="908.3835" y="150" height="325" style="fill:rgb(0,255,255);fill-opacity:0.5;stroke-width:1;stroke:rgb(0,0,0)"/>
<text transform="translate(151.344,154) rotate(90)" font-size="30pt">dw8250_platform_driver_init</text>
<rect x="1054.524" width="11.7450000000001" y="150" height="325" style="fill:rgb(0,128,255);fill-opacity:0.5;stroke-width:1;stroke:rgb(0,0,0)"/>
<text transform="translate(1055.524,154) rotate(90)" font-size="18pt">timeriomem_rng_driver_init</text>
<rect x="1072.5135" width="13.9859999999999" y="150" height="325" style="fill:rgb(0,255,128);fill-opacity:0.5;stroke-width:1;stroke:rgb(0,0,0)"/>
<text transform="translate(1073.5135,154) rotate(90)" font-size="18pt">loop_init</text>
<rect x="1086.5145" width="17.5679999999998" y="150" height="325" style="fill:rgb(255,0,128);fill-opacity:0.5;stroke-width:1;stroke:rgb(0,0,0)"/>
<text transform="translate(1087.5145,154) rotate(90)" font-size="18pt">nbd_init</text>
<rect x="1104.72" width="316.1055" y="150" height="325" style="fill:rgb(255,255,128);fill-opacity:0.5;stroke-width:1;stroke:rgb(0,0,0)"/>
<text transform="translate(1110.72,154) rotate(90)" font-size="30pt">aspeed_smc_driver_init</text>
<rect x="1421.5725" width="7.48649999999998" y="150" height="325" style="fill:rgb(255,128,255);fill-opacity:0.5;stroke-width:1;stroke:rgb(0,0,0)"/>
<rect x="1429.452" width="35.9865" y="150" height="325" style="fill:rgb(128,255,255);fill-opacity:0.5;stroke-width:1;stroke:rgb(0,0,0)"/>
<text transform="translate(1435.452,154) rotate(90)" font-size="30pt">aspeed_mdio_driver_init</text>
<rect x="1465.458" width="218.109" y="150" height="325" style="fill:rgb(0,0,255);fill-opacity:0.5;stroke-width:1;stroke:rgb(0,0,0)"/>
<text transform="translate(1471.458,154) rotate(90)" font-size="30pt">ftgmac100_driver_init</text>
<rect x="1683.585" width="11.0805" y="150" height="325" style="fill:rgb(0,255,0);fill-opacity:0.5;stroke-width:1;stroke:rgb(0,0,0)"/>
<text transform="translate(1684.585,154) rotate(90)" font-size="18pt">ehci_hcd_init</text>
<rect x="1694.6805" width="9.02850000000012" y="150" height="325" style="fill:rgb(255,0,20);fill-opacity:0.5;stroke-width:1;stroke:rgb(0,0,0)"/>
<text transform="translate(1695.6805,154) rotate(90)" font-size="18pt">ehci_platform_init</text>
<rect x="1703.724" width="10.1085" y="150" height="325" style="fill:rgb(255,255,20);fill-opacity:0.5;stroke-width:1;stroke:rgb(0,0,0)"/>
<text transform="translate(1704.724,154) rotate(90)" font-size="18pt">usb_storage_driver_init</text>
<rect x="1714.6155" width="21.9000000000003" y="150" height="325" style="fill:rgb(255,0,255);fill-opacity:0.5;stroke-width:1;stroke:rgb(0,0,0)"/>
<text transform="translate(1715.6155,154) rotate(90)" font-size="18pt">aspeed_rtc_driver_init</text>
<rect x="1736.6985" width="5.87999999999988" y="150" height="325" style="fill:rgb(0,255,255);fill-opacity:0.5;stroke-width:1;stroke:rgb(0,0,0)"/>
<rect x="1742.589" width="173.388" y="150" height="325" style="fill:rgb(0,128,255);fill-opacity:0.5;stroke-width:1;stroke:rgb(0,0,0)"/>
<text transform="translate(1748.589,154) rotate(90)" font-size="30pt">aspeed_i2c_bus_driver_init</text>
<rect x="1916.637" width="8.72550000000001" y="150" height="325" style="fill:rgb(0,255,128);fill-opacity:0.5;stroke-width:1;stroke:rgb(0,0,0)"/>
<text transform="translate(1917.637,154) rotate(90)" font-size="18pt">w1_init</text>
<rect x="1927.1235" width="14.7150000000001" y="150" height="325" style="fill:rgb(255,0,128);fill-opacity:0.5;stroke-width:1;stroke:rgb(0,0,0)"/>
<text transform="translate(1928.1235,154) rotate(90)" font-size="18pt">dm_init</text>
<rect x="1942.158" width="23.3354999999997" y="150" height="325" style="fill:rgb(255,255,128);fill-opacity:0.5;stroke-width:1;stroke:rgb(0,0,0)"/>
<text transform="translate(1943.158,154) rotate(90)" font-size="18pt">aspeed_driver_init</text>
<rect x="1965.873" width="17.7075000000002" y="150" height="325" style="fill:rgb(255,128,255);fill-opacity:0.5;stroke-width:1;stroke:rgb(0,0,0)"/>
<text transform="translate(1966.873,154) rotate(90)" font-size="18pt">sdhci_drv_init</text>
<rect x="1983.5925" width="9.50849999999991" y="150" height="325" style="fill:rgb(128,255,255);fill-opacity:0.5;stroke-width:1;stroke:rgb(0,0,0)"/>
<text transform="translate(1984.5925,154) rotate(90)" font-size="18pt">sdhci_pltfm_drv_init</text>
<rect x="1994.1405" width="25.8344999999999" y="150" height="325" style="fill:rgb(0,0,255);fill-opacity:0.5;stroke-width:1;stroke:rgb(0,0,0)"/>
<text transform="translate(1995.1405,154) rotate(90)" font-size="18pt">hid_init</text>
<rect x="2020.686" width="69.6075000000003" y="150" height="325" style="fill:rgb(0,255,0);fill-opacity:0.5;stroke-width:1;stroke:rgb(0,0,0)"/>
<text transform="translate(2026.686,154) rotate(90)" font-size="30pt">fsi_master_aspeed_driver_init</text>
<rect x="2093.925" width="16.3919999999994" y="150" height="325" style="fill:rgb(255,0,20);fill-opacity:0.5;stroke-width:1;stroke:rgb(0,0,0)"/>
<text transform="translate(2094.925,154) rotate(90)" font-size="18pt">inet6_init</text>
<rect x="2111.3685" width="7.47600000000011" y="150" height="325" style="fill:rgb(255,255,20);fill-opacity:0.5;stroke-width:1;stroke:rgb(0,0,0)"/>
<rect x="2118.8775" width="7.10999999999967" y="150" height="325" style="fill:rgb(255,0,255);fill-opacity:0.5;stroke-width:1;stroke:rgb(0,0,0)"/>
<rect x="2126.2275" width="8.03850000000011" y="150" height="325" style="fill:rgb(0,255,255);fill-opacity:0.5;stroke-width:1;stroke:rgb(0,0,0)"/>
<text transform="translate(2127.2275,154) rotate(90)" font-size="18pt">swp_emulation_init</text>
<rect x="2134.683" width="6.97649999999976" y="150" height="325" style="fill:rgb(0,128,255);fill-opacity:0.5;stroke-width:1;stroke:rgb(0,0,0)"/>
<rect x="2153.1525" width="15.0389999999998" y="150" height="325" style="fill:rgb(0,255,128);fill-opacity:0.5;stroke-width:1;stroke:rgb(0,0,0)"/>
<text transform="translate(2154.1525,154) rotate(90)" font-size="18pt">init_netconsole</text>
<text transform="translate(0,89) rotate(0)" font-size="30pt">0</text>
<text transform="translate(150,89) rotate(0)" font-size="30pt">0.1</text>
<text transform="translate(300,89) rotate(0)" font-size="30pt">0.2</text>
<text transform="translate(450,89) rotate(0)" font-size="30pt">0.3</text>
<text transform="translate(600,89) rotate(0)" font-size="30pt">0.4</text>
<text transform="translate(750,89) rotate(0)" font-size="30pt">0.5</text>
<text transform="translate(900,89) rotate(0)" font-size="30pt">0.6</text>
<text transform="translate(1050,89) rotate(0)" font-size="30pt">0.7</text>
<text transform="translate(1200,89) rotate(0)" font-size="30pt">0.8</text>
<text transform="translate(1350,89) rotate(0)" font-size="30pt">0.9</text>
<text transform="translate(1500,89) rotate(0)" font-size="30pt">1</text>
<text transform="translate(1650,89) rotate(0)" font-size="30pt">1.1</text>
<text transform="translate(1800,89) rotate(0)" font-size="30pt">1.2</text>
<text transform="translate(1950,89) rotate(0)" font-size="30pt">1.3</text>
<text transform="translate(2100,89) rotate(0)" font-size="30pt">1.4</text>
</svg>
