<?xml version="1.0" standalone="no"?> 
<svg width="16107.362765" height="1000" version="1.1" xmlns="http://www.w3.org/2000/svg">
<rect x="101.315" width="23.58" y="150" height="325" style="fill:rgb(0,0,255);fill-opacity:0.5;stroke-width:1;stroke:rgb(0,0,0)"/>
<rect x="145.69" width="74.765" y="150" height="325" style="fill:rgb(0,255,0);fill-opacity:0.5;stroke-width:1;stroke:rgb(0,0,0)"/>
<text transform="translate(146.69,154) rotate(90)" font-size="18pt">of_platform_default_populate_init</text>
<rect x="222.24" width="28.28" y="150" height="325" style="fill:rgb(255,0,20);fill-opacity:0.5;stroke-width:1;stroke:rgb(0,0,0)"/>
<text transform="translate(223.24,154) rotate(90)" font-size="18pt">param_sysfs_init</text>
<rect x="289.7" width="562.66" y="150" height="325" style="fill:rgb(255,255,20);fill-opacity:0.5;stroke-width:1;stroke:rgb(0,0,0)"/>
<text transform="translate(295.7,154) rotate(90)" font-size="30pt">tracer_init_tracefs</text>
<rect x="871.585" width="300.275" y="150" height="325" style="fill:rgb(255,0,255);fill-opacity:0.5;stroke-width:1;stroke:rgb(0,0,0)"/>
<text transform="translate(877.585,154) rotate(90)" font-size="30pt">populate_rootfs</text>
<rect x="1191.95" width="155.645" y="150" height="325" style="fill:rgb(0,255,255);fill-opacity:0.5;stroke-width:1;stroke:rgb(0,0,0)"/>
<text transform="translate(1197.95,154) rotate(90)" font-size="30pt">jent_mod_init</text>
<rect x="1358.42" width="57.72" y="150" height="325" style="fill:rgb(0,128,255);fill-opacity:0.5;stroke-width:1;stroke:rgb(0,0,0)"/>
<text transform="translate(1359.42,154) rotate(90)" font-size="18pt">aspeed_pcie_driver_init</text>
<rect x="1447.05" width="209.675" y="150" height="325" style="fill:rgb(0,255,128);fill-opacity:0.5;stroke-width:1;stroke:rgb(0,0,0)"/>
<text transform="translate(1453.05,154) rotate(90)" font-size="30pt">ast_video_driver_init</text>
<rect x="1680.945" width="4786.42" y="150" height="325" style="fill:rgb(255,0,128);fill-opacity:0.5;stroke-width:1;stroke:rgb(0,0,0)"/>
<text transform="translate(1686.945,154) rotate(90)" font-size="30pt">ast8250_platform_driver_init</text>
<rect x="6514.835" width="56.9650000000001" y="150" height="325" style="fill:rgb(255,255,128);fill-opacity:0.5;stroke-width:1;stroke:rgb(0,0,0)"/>
<text transform="translate(6515.835,154) rotate(90)" font-size="18pt">brd_init</text>
<rect x="6571.845" width="38.4100000000008" y="150" height="325" style="fill:rgb(255,128,255);fill-opacity:0.5;stroke-width:1;stroke:rgb(0,0,0)"/>
<text transform="translate(6572.845,154) rotate(90)" font-size="18pt">loop_init</text>
<rect x="6610.3" width="41.3099999999995" y="150" height="325" style="fill:rgb(128,255,255);fill-opacity:0.5;stroke-width:1;stroke:rgb(0,0,0)"/>
<text transform="translate(6611.3,154) rotate(90)" font-size="18pt">nbd_init</text>
<rect x="6658.715" width="1035.565" y="150" height="325" style="fill:rgb(0,0,255);fill-opacity:0.5;stroke-width:1;stroke:rgb(0,0,0)"/>
<text transform="translate(6664.715,154) rotate(90)" font-size="30pt">aspeed_spi_driver_init</text>
<rect x="7694.56" width="43.8100000000004" y="150" height="325" style="fill:rgb(0,255,0);fill-opacity:0.5;stroke-width:1;stroke:rgb(0,0,0)"/>
<text transform="translate(7695.56,154) rotate(90)" font-size="18pt">bonding_init</text>
<rect x="7738.77" width="108.220000000001" y="150" height="325" style="fill:rgb(255,0,20);fill-opacity:0.5;stroke-width:1;stroke:rgb(0,0,0)"/>
<text transform="translate(7744.77,154) rotate(90)" font-size="30pt">aspeed_mdio_driver_init</text>
<rect x="7854.09" width="23.7799999999997" y="150" height="325" style="fill:rgb(255,255,20);fill-opacity:0.5;stroke-width:1;stroke:rgb(0,0,0)"/>
<rect x="7884.275" width="2312.05" y="150" height="325" style="fill:rgb(255,0,255);fill-opacity:0.5;stroke-width:1;stroke:rgb(0,0,0)"/>
<text transform="translate(7890.275,154) rotate(90)" font-size="30pt">ftgmac100_driver_init</text>
<rect x="10268.285" width="65.9150000000009" y="150" height="325" style="fill:rgb(0,255,255);fill-opacity:0.5;stroke-width:1;stroke:rgb(0,0,0)"/>
<text transform="translate(10269.285,154) rotate(90)" font-size="18pt">e1000_init_module</text>
<rect x="10334.23" width="70.2450000000008" y="150" height="325" style="fill:rgb(0,128,255);fill-opacity:0.5;stroke-width:1;stroke:rgb(0,0,0)"/>
<text transform="translate(10335.23,154) rotate(90)" font-size="18pt">igb_init_module</text>
<rect x="10404.51" width="36.6850000000013" y="150" height="325" style="fill:rgb(0,255,128);fill-opacity:0.5;stroke-width:1;stroke:rgb(0,0,0)"/>
<text transform="translate(10405.51,154) rotate(90)" font-size="18pt">ehci_hcd_init</text>
<rect x="10441.23" width="25.2600000000002" y="150" height="325" style="fill:rgb(255,0,128);fill-opacity:0.5;stroke-width:1;stroke:rgb(0,0,0)"/>
<text transform="translate(10442.23,154) rotate(90)" font-size="18pt">ehci_pci_init</text>
<rect x="10466.53" width="527.775" y="150" height="325" style="fill:rgb(255,255,128);fill-opacity:0.5;stroke-width:1;stroke:rgb(0,0,0)"/>
<text transform="translate(10472.53,154) rotate(90)" font-size="30pt">ehci_platform_init</text>
<rect x="10994.36" width="456.694999999998" y="150" height="325" style="fill:rgb(255,128,255);fill-opacity:0.5;stroke-width:1;stroke:rgb(0,0,0)"/>
<text transform="translate(11000.36,154) rotate(90)" font-size="30pt">uhci_hcd_init</text>
<rect x="11451.11" width="33.9749999999985" y="150" height="325" style="fill:rgb(128,255,255);fill-opacity:0.5;stroke-width:1;stroke:rgb(0,0,0)"/>
<text transform="translate(11452.11,154) rotate(90)" font-size="18pt">usb_storage_driver_init</text>
<rect x="11485.69" width="49.6750000000011" y="150" height="325" style="fill:rgb(0,0,255);fill-opacity:0.5;stroke-width:1;stroke:rgb(0,0,0)"/>
<text transform="translate(11486.69,154) rotate(90)" font-size="18pt">ast_vhub_driver_init</text>
<rect x="11537.275" width="32.6950000000015" y="150" height="325" style="fill:rgb(0,255,0);fill-opacity:0.5;stroke-width:1;stroke:rgb(0,0,0)"/>
<text transform="translate(11538.275,154) rotate(90)" font-size="18pt">aspeed_rtc_driver_init</text>
<rect x="11570.565" width="19.8100000000013" y="150" height="325" style="fill:rgb(255,0,20);fill-opacity:0.5;stroke-width:1;stroke:rgb(0,0,0)"/>
<rect x="11590.415" width="363.214999999998" y="150" height="325" style="fill:rgb(255,255,20);fill-opacity:0.5;stroke-width:1;stroke:rgb(0,0,0)"/>
<text transform="translate(11596.415,154) rotate(90)" font-size="30pt">aspeed_new_i2c_bus_driver_init</text>
<rect x="11955.165" width="1859.655" y="150" height="325" style="fill:rgb(255,0,255);fill-opacity:0.5;stroke-width:1;stroke:rgb(0,0,0)"/>
<text transform="translate(11961.165,154) rotate(90)" font-size="30pt">dw_i3c_driver_init</text>
<rect x="13816.4" width="29.2999999999993" y="150" height="325" style="fill:rgb(0,255,255);fill-opacity:0.5;stroke-width:1;stroke:rgb(0,0,0)"/>
<text transform="translate(13817.4,154) rotate(90)" font-size="18pt">w1_init</text>
<rect x="13846.82" width="297.559999999999" y="150" height="325" style="fill:rgb(0,128,255);fill-opacity:0.5;stroke-width:1;stroke:rgb(0,0,0)"/>
<text transform="translate(13852.82,154) rotate(90)" font-size="30pt">adt7475_driver_init</text>
<rect x="14145.725" width="83.8899999999994" y="150" height="325" style="fill:rgb(0,255,128);fill-opacity:0.5;stroke-width:1;stroke:rgb(0,0,0)"/>
<text transform="translate(14146.725,154) rotate(90)" font-size="18pt">aspeed_pwm_tachometer_driver_init</text>
<rect x="14231.39" width="29.9650000000001" y="150" height="325" style="fill:rgb(255,0,128);fill-opacity:0.5;stroke-width:1;stroke:rgb(0,0,0)"/>
<text transform="translate(14232.39,154) rotate(90)" font-size="18pt">lm75_driver_init</text>
<rect x="14265.465" width="75.1999999999989" y="150" height="325" style="fill:rgb(255,255,128);fill-opacity:0.5;stroke-width:1;stroke:rgb(0,0,0)"/>
<text transform="translate(14266.465,154) rotate(90)" font-size="18pt">dm_init</text>
<rect x="14341.64" width="118.475" y="150" height="325" style="fill:rgb(255,128,255);fill-opacity:0.5;stroke-width:1;stroke:rgb(0,0,0)"/>
<text transform="translate(14347.64,154) rotate(90)" font-size="30pt">aspeed_init</text>
<rect x="14461.77" width="58.8999999999996" y="150" height="325" style="fill:rgb(128,255,255);fill-opacity:0.5;stroke-width:1;stroke:rgb(0,0,0)"/>
<text transform="translate(14462.77,154) rotate(90)" font-size="18pt">sdhci_drv_init</text>
<rect x="14520.7" width="31.6700000000019" y="150" height="325" style="fill:rgb(0,0,255);fill-opacity:0.5;stroke-width:1;stroke:rgb(0,0,0)"/>
<text transform="translate(14521.7,154) rotate(90)" font-size="18pt">sdhci_pltfm_drv_init</text>
<rect x="14552.395" width="710.809999999999" y="150" height="325" style="fill:rgb(0,255,0);fill-opacity:0.5;stroke-width:1;stroke:rgb(0,0,0)"/>
<text transform="translate(14558.395,154) rotate(90)" font-size="30pt">aspeed_sdc_init</text>
<rect x="15264.98" width="102.245000000001" y="150" height="325" style="fill:rgb(255,0,20);fill-opacity:0.5;stroke-width:1;stroke:rgb(0,0,0)"/>
<text transform="translate(15270.98,154) rotate(90)" font-size="30pt">aspeed_hace_driver_init</text>
<rect x="15367.275" width="86.7350000000006" y="150" height="325" style="fill:rgb(255,255,20);fill-opacity:0.5;stroke-width:1;stroke:rgb(0,0,0)"/>
<text transform="translate(15368.275,154) rotate(90)" font-size="18pt">aspeed_acry_driver_init</text>
<rect x="15454.845" width="52.8900000000012" y="150" height="325" style="fill:rgb(255,0,255);fill-opacity:0.5;stroke-width:1;stroke:rgb(0,0,0)"/>
<text transform="translate(15455.845,154) rotate(90)" font-size="18pt">hid_init</text>
<rect x="15507.78" width="31.125" y="150" height="325" style="fill:rgb(0,255,255);fill-opacity:0.5;stroke-width:1;stroke:rgb(0,0,0)"/>
<text transform="translate(15508.78,154) rotate(90)" font-size="18pt">aspeed_adc_driver_init</text>
<rect x="15543.77" width="135.935000000001" y="150" height="325" style="fill:rgb(0,128,255);fill-opacity:0.5;stroke-width:1;stroke:rgb(0,0,0)"/>
<text transform="translate(15549.77,154) rotate(90)" font-size="30pt">aspeed_peci_driver_init</text>
<rect x="15688.04" width="53.0049999999992" y="150" height="325" style="fill:rgb(0,255,128);fill-opacity:0.5;stroke-width:1;stroke:rgb(0,0,0)"/>
<text transform="translate(15689.04,154) rotate(90)" font-size="18pt">inet6_init</text>
<rect x="15743.975" width="36.5850000000009" y="150" height="325" style="fill:rgb(255,0,128);fill-opacity:0.5;stroke-width:1;stroke:rgb(0,0,0)"/>
<text transform="translate(15744.975,154) rotate(90)" font-size="18pt">sit_init</text>
<rect x="15780.605" width="25.0949999999993" y="150" height="325" style="fill:rgb(255,255,128);fill-opacity:0.5;stroke-width:1;stroke:rgb(0,0,0)"/>
<text transform="translate(15781.605,154) rotate(90)" font-size="18pt">packet_init</text>
<rect x="15805.795" width="23.4599999999991" y="150" height="325" style="fill:rgb(255,128,255);fill-opacity:0.5;stroke-width:1;stroke:rgb(0,0,0)"/>
<rect x="15829.945" width="26.8849999999984" y="150" height="325" style="fill:rgb(128,255,255);fill-opacity:0.5;stroke-width:1;stroke:rgb(0,0,0)"/>
<text transform="translate(15830.945,154) rotate(90)" font-size="18pt">swp_emulation_init</text>
<rect x="15866.165" width="27.75" y="150" height="325" style="fill:rgb(0,0,255);fill-opacity:0.5;stroke-width:1;stroke:rgb(0,0,0)"/>
<text transform="translate(15867.165,154) rotate(90)" font-size="18pt">clk_debug_init</text>
<rect x="15900.13" width="50.1450000000004" y="150" height="325" style="fill:rgb(0,255,0);fill-opacity:0.5;stroke-width:1;stroke:rgb(0,0,0)"/>
<text transform="translate(15901.13,154) rotate(90)" font-size="18pt">init_netconsole</text>
<rect x="15951.6" width="41.0250000000015" y="150" height="325" style="fill:rgb(255,0,20);fill-opacity:0.5;stroke-width:1;stroke:rgb(0,0,0)"/>
<text transform="translate(15952.6,154) rotate(90)" font-size="18pt">rtc_hctosys</text>
<text transform="translate(0,89) rotate(0)" font-size="30pt">0</text>
<text transform="translate(500,89) rotate(0)" font-size="30pt">0.1</text>
<text transform="translate(1000,89) rotate(0)" font-size="30pt">0.2</text>
<text transform="translate(1500,89) rotate(0)" font-size="30pt">0.3</text>
<text transform="translate(2000,89) rotate(0)" font-size="30pt">0.4</text>
<text transform="translate(2500,89) rotate(0)" font-size="30pt">0.5</text>
<text transform="translate(3000,89) rotate(0)" font-size="30pt">0.6</text>
<text transform="translate(3500,89) rotate(0)" font-size="30pt">0.7</text>
<text transform="translate(4000,89) rotate(0)" font-size="30pt">0.8</text>
<text transform="translate(4500,89) rotate(0)" font-size="30pt">0.9</text>
<text transform="translate(5000,89) rotate(0)" font-size="30pt">1</text>
<text transform="translate(5500,89) rotate(0)" font-size="30pt">1.1</text>
<text transform="translate(6000,89) rotate(0)" font-size="30pt">1.2</text>
<text transform="translate(6500,89) rotate(0)" font-size="30pt">1.3</text>
<text transform="translate(7000,89) rotate(0)" font-size="30pt">1.4</text>
<text transform="translate(7500,89) rotate(0)" font-size="30pt">1.5</text>
<text transform="translate(8000,89) rotate(0)" font-size="30pt">1.6</text>
<text transform="translate(8500,89) rotate(0)" font-size="30pt">1.7</text>
<text transform="translate(9000,89) rotate(0)" font-size="30pt">1.8</text>
<text transform="translate(9500,89) rotate(0)" font-size="30pt">1.9</text>
<text transform="translate(10000,89) rotate(0)" font-size="30pt">2</text>
<text transform="translate(10500,89) rotate(0)" font-size="30pt">2.1</text>
<text transform="translate(11000,89) rotate(0)" font-size="30pt">2.2</text>
<text transform="translate(11500,89) rotate(0)" font-size="30pt">2.3</text>
<text transform="translate(12000,89) rotate(0)" font-size="30pt">2.4</text>
<text transform="translate(12500,89) rotate(0)" font-size="30pt">2.5</text>
<text transform="translate(13000,89) rotate(0)" font-size="30pt">2.6</text>
<text transform="translate(13500,89) rotate(0)" font-size="30pt">2.7</text>
<text transform="translate(14000,89) rotate(0)" font-size="30pt">2.8</text>
<text transform="translate(14500,89) rotate(0)" font-size="30pt">2.9</text>
<text transform="translate(15000,89) rotate(0)" font-size="30pt">3</text>
<text transform="translate(15500,89) rotate(0)" font-size="30pt">3.1</text>
</svg>
