<?xml version="1.0" standalone="no"?> 
<svg width="18915.372195" height="1000" version="1.1" xmlns="http://www.w3.org/2000/svg">
<rect x="84.54" width="22.44" y="150" height="325" style="fill:rgb(0,0,255);fill-opacity:0.5;stroke-width:1;stroke:rgb(0,0,0)"/>
<rect x="125.605" width="74.21" y="150" height="325" style="fill:rgb(0,255,0);fill-opacity:0.5;stroke-width:1;stroke:rgb(0,0,0)"/>
<text transform="translate(126.605,154) rotate(90)" font-size="18pt">of_platform_default_populate_init</text>
<rect x="202.005" width="27.415" y="150" height="325" style="fill:rgb(255,0,20);fill-opacity:0.5;stroke-width:1;stroke:rgb(0,0,0)"/>
<text transform="translate(203.005,154) rotate(90)" font-size="18pt">param_sysfs_init</text>
<rect x="285.475" width="267.275" y="150" height="325" style="fill:rgb(255,255,20);fill-opacity:0.5;stroke-width:1;stroke:rgb(0,0,0)"/>
<text transform="translate(291.475,154) rotate(90)" font-size="30pt">populate_rootfs</text>
<rect x="572.93" width="151.71" y="150" height="325" style="fill:rgb(255,0,255);fill-opacity:0.5;stroke-width:1;stroke:rgb(0,0,0)"/>
<text transform="translate(578.93,154) rotate(90)" font-size="30pt">jent_mod_init</text>
<rect x="735.045" width="55.035" y="150" height="325" style="fill:rgb(0,255,255);fill-opacity:0.5;stroke-width:1;stroke:rgb(0,0,0)"/>
<text transform="translate(736.045,154) rotate(90)" font-size="18pt">aspeed_pcie_driver_init</text>
<rect x="842.625" width="4708.67" y="150" height="325" style="fill:rgb(0,128,255);fill-opacity:0.5;stroke-width:1;stroke:rgb(0,0,0)"/>
<text transform="translate(848.625,154) rotate(90)" font-size="30pt">ast8250_platform_driver_init</text>
<rect x="5560.235" width="99.2800000000007" y="150" height="325" style="fill:rgb(0,255,128);fill-opacity:0.5;stroke-width:1;stroke:rgb(0,0,0)"/>
<text transform="translate(5561.235,154) rotate(90)" font-size="18pt">brd_init</text>
<rect x="5659.555" width="39.7849999999999" y="150" height="325" style="fill:rgb(255,0,128);fill-opacity:0.5;stroke-width:1;stroke:rgb(0,0,0)"/>
<text transform="translate(5660.555,154) rotate(90)" font-size="18pt">loop_init</text>
<rect x="5699.375" width="41.3000000000011" y="150" height="325" style="fill:rgb(255,255,128);fill-opacity:0.5;stroke-width:1;stroke:rgb(0,0,0)"/>
<text transform="translate(5700.375,154) rotate(90)" font-size="18pt">nbd_init</text>
<rect x="5747.625" width="1035.07" y="150" height="325" style="fill:rgb(255,128,255);fill-opacity:0.5;stroke-width:1;stroke:rgb(0,0,0)"/>
<text transform="translate(5753.625,154) rotate(90)" font-size="30pt">aspeed_spi_driver_init</text>
<rect x="6782.94" width="43.9700000000003" y="150" height="325" style="fill:rgb(128,255,255);fill-opacity:0.5;stroke-width:1;stroke:rgb(0,0,0)"/>
<text transform="translate(6783.94,154) rotate(90)" font-size="18pt">bonding_init</text>
<rect x="6827.27" width="108.48" y="150" height="325" style="fill:rgb(0,0,255);fill-opacity:0.5;stroke-width:1;stroke:rgb(0,0,0)"/>
<text transform="translate(6833.27,154) rotate(90)" font-size="30pt">aspeed_mdio_driver_init</text>
<rect x="6942.7" width="23.8499999999995" y="150" height="325" style="fill:rgb(0,255,0);fill-opacity:0.5;stroke-width:1;stroke:rgb(0,0,0)"/>
<rect x="6973.47" width="2311.18" y="150" height="325" style="fill:rgb(255,0,20);fill-opacity:0.5;stroke-width:1;stroke:rgb(0,0,0)"/>
<text transform="translate(6979.47,154) rotate(90)" font-size="30pt">ftgmac100_driver_init</text>
<rect x="9356.685" width="65.9500000000007" y="150" height="325" style="fill:rgb(255,255,20);fill-opacity:0.5;stroke-width:1;stroke:rgb(0,0,0)"/>
<text transform="translate(9357.685,154) rotate(90)" font-size="18pt">e1000_init_module</text>
<rect x="9422.66" width="70.2000000000007" y="150" height="325" style="fill:rgb(255,0,255);fill-opacity:0.5;stroke-width:1;stroke:rgb(0,0,0)"/>
<text transform="translate(9423.66,154) rotate(90)" font-size="18pt">igb_init_module</text>
<rect x="9492.885" width="36.6800000000003" y="150" height="325" style="fill:rgb(0,255,255);fill-opacity:0.5;stroke-width:1;stroke:rgb(0,0,0)"/>
<text transform="translate(9493.885,154) rotate(90)" font-size="18pt">ehci_hcd_init</text>
<rect x="9529.59" width="25.0549999999985" y="150" height="325" style="fill:rgb(0,128,255);fill-opacity:0.5;stroke-width:1;stroke:rgb(0,0,0)"/>
<text transform="translate(9530.59,154) rotate(90)" font-size="18pt">ehci_pci_init</text>
<rect x="9554.675" width="518.714999999998" y="150" height="325" style="fill:rgb(0,255,128);fill-opacity:0.5;stroke-width:1;stroke:rgb(0,0,0)"/>
<text transform="translate(9560.675,154) rotate(90)" font-size="30pt">ehci_platform_init</text>
<rect x="10073.43" width="456.565000000001" y="150" height="325" style="fill:rgb(255,0,128);fill-opacity:0.5;stroke-width:1;stroke:rgb(0,0,0)"/>
<text transform="translate(10079.43,154) rotate(90)" font-size="30pt">uhci_hcd_init</text>
<rect x="10530.035" width="33.8999999999996" y="150" height="325" style="fill:rgb(255,255,128);fill-opacity:0.5;stroke-width:1;stroke:rgb(0,0,0)"/>
<text transform="translate(10531.035,154) rotate(90)" font-size="18pt">usb_storage_driver_init</text>
<rect x="10564.55" width="50.130000000001" y="150" height="325" style="fill:rgb(255,128,255);fill-opacity:0.5;stroke-width:1;stroke:rgb(0,0,0)"/>
<text transform="translate(10565.55,154) rotate(90)" font-size="18pt">ast_vhub_driver_init</text>
<rect x="10616.425" width="32.6149999999998" y="150" height="325" style="fill:rgb(128,255,255);fill-opacity:0.5;stroke-width:1;stroke:rgb(0,0,0)"/>
<text transform="translate(10617.425,154) rotate(90)" font-size="18pt">aspeed_rtc_driver_init</text>
<rect x="10649.59" width="19.75" y="150" height="325" style="fill:rgb(0,0,255);fill-opacity:0.5;stroke-width:1;stroke:rgb(0,0,0)"/>
<rect x="10669.375" width="363.379999999999" y="150" height="325" style="fill:rgb(0,255,0);fill-opacity:0.5;stroke-width:1;stroke:rgb(0,0,0)"/>
<text transform="translate(10675.375,154) rotate(90)" font-size="30pt">aspeed_new_i2c_bus_driver_init</text>
<rect x="11035.335" width="29.1400000000012" y="150" height="325" style="fill:rgb(255,0,20);fill-opacity:0.5;stroke-width:1;stroke:rgb(0,0,0)"/>
<text transform="translate(11036.335,154) rotate(90)" font-size="18pt">w1_init</text>
<rect x="11065.43" width="188.860000000001" y="150" height="325" style="fill:rgb(255,255,20);fill-opacity:0.5;stroke-width:1;stroke:rgb(0,0,0)"/>
<text transform="translate(11071.43,154) rotate(90)" font-size="30pt">adt7475_driver_init</text>
<rect x="11255.505" width="52.6900000000005" y="150" height="325" style="fill:rgb(255,0,255);fill-opacity:0.5;stroke-width:1;stroke:rgb(0,0,0)"/>
<text transform="translate(11256.505,154) rotate(90)" font-size="18pt">aspeed_pwm_tachometer_driver_init</text>
<rect x="11309.825" width="29.2749999999996" y="150" height="325" style="fill:rgb(0,255,255);fill-opacity:0.5;stroke-width:1;stroke:rgb(0,0,0)"/>
<text transform="translate(11310.825,154) rotate(90)" font-size="18pt">lm75_driver_init</text>
<rect x="11342.705" width="49.0450000000001" y="150" height="325" style="fill:rgb(0,128,255);fill-opacity:0.5;stroke-width:1;stroke:rgb(0,0,0)"/>
<text transform="translate(11343.705,154) rotate(90)" font-size="18pt">dm_init</text>
<rect x="11392.78" width="118.389999999999" y="150" height="325" style="fill:rgb(0,255,128);fill-opacity:0.5;stroke-width:1;stroke:rgb(0,0,0)"/>
<text transform="translate(11398.78,154) rotate(90)" font-size="30pt">aspeed_init</text>
<rect x="11512.875" width="59.1100000000006" y="150" height="325" style="fill:rgb(255,0,128);fill-opacity:0.5;stroke-width:1;stroke:rgb(0,0,0)"/>
<text transform="translate(11513.875,154) rotate(90)" font-size="18pt">sdhci_drv_init</text>
<rect x="11572.015" width="31.5850000000009" y="150" height="325" style="fill:rgb(255,255,128);fill-opacity:0.5;stroke-width:1;stroke:rgb(0,0,0)"/>
<text transform="translate(11573.015,154) rotate(90)" font-size="18pt">sdhci_pltfm_drv_init</text>
<rect x="11605.52" width="52.9200000000001" y="150" height="325" style="fill:rgb(255,128,255);fill-opacity:0.5;stroke-width:1;stroke:rgb(0,0,0)"/>
<text transform="translate(11606.52,154) rotate(90)" font-size="18pt">hid_init</text>
<rect x="11658.475" width="29.8350000000009" y="150" height="325" style="fill:rgb(128,255,255);fill-opacity:0.5;stroke-width:1;stroke:rgb(0,0,0)"/>
<text transform="translate(11659.475,154) rotate(90)" font-size="18pt">aspeed_adc_driver_init</text>
<rect x="11692.68" width="135.424999999999" y="150" height="325" style="fill:rgb(0,0,255);fill-opacity:0.5;stroke-width:1;stroke:rgb(0,0,0)"/>
<text transform="translate(11698.68,154) rotate(90)" font-size="30pt">aspeed_peci_driver_init</text>
<rect x="11835.265" width="52.8350000000009" y="150" height="325" style="fill:rgb(0,255,0);fill-opacity:0.5;stroke-width:1;stroke:rgb(0,0,0)"/>
<text transform="translate(11836.265,154) rotate(90)" font-size="18pt">inet6_init</text>
<rect x="11890.505" width="36.3900000000012" y="150" height="325" style="fill:rgb(255,0,20);fill-opacity:0.5;stroke-width:1;stroke:rgb(0,0,0)"/>
<text transform="translate(11891.505,154) rotate(90)" font-size="18pt">sit_init</text>
<rect x="11926.94" width="24.8950000000004" y="150" height="325" style="fill:rgb(255,255,20);fill-opacity:0.5;stroke-width:1;stroke:rgb(0,0,0)"/>
<rect x="11951.925" width="23.7049999999981" y="150" height="325" style="fill:rgb(255,0,255);fill-opacity:0.5;stroke-width:1;stroke:rgb(0,0,0)"/>
<rect x="11976.555" width="26.7750000000015" y="150" height="325" style="fill:rgb(0,255,255);fill-opacity:0.5;stroke-width:1;stroke:rgb(0,0,0)"/>
<text transform="translate(11977.555,154) rotate(90)" font-size="18pt">swp_emulation_init</text>
<rect x="12003.455" width="40.7800000000007" y="150" height="325" style="fill:rgb(0,128,255);fill-opacity:0.5;stroke-width:1;stroke:rgb(0,0,0)"/>
<text transform="translate(12004.455,154) rotate(90)" font-size="18pt">pm_qos_power_init</text>
<rect x="12052.29" width="26.2149999999983" y="150" height="325" style="fill:rgb(0,255,128);fill-opacity:0.5;stroke-width:1;stroke:rgb(0,0,0)"/>
<text transform="translate(12053.29,154) rotate(90)" font-size="18pt">clk_debug_init</text>
<rect x="12084.555" width="49.9950000000008" y="150" height="325" style="fill:rgb(255,0,128);fill-opacity:0.5;stroke-width:1;stroke:rgb(0,0,0)"/>
<text transform="translate(12085.555,154) rotate(90)" font-size="18pt">init_netconsole</text>
<rect x="12135.755" width="41.0749999999989" y="150" height="325" style="fill:rgb(255,255,128);fill-opacity:0.5;stroke-width:1;stroke:rgb(0,0,0)"/>
<text transform="translate(12136.755,154) rotate(90)" font-size="18pt">rtc_hctosys</text>
<rect x="12179.11" width="6604.23" y="150" height="325" style="fill:rgb(255,128,255);fill-opacity:0.5;stroke-width:1;stroke:rgb(0,0,0)"/>
<text transform="translate(12185.11,154) rotate(90)" font-size="30pt">software_resume</text>
<text transform="translate(0,89) rotate(0)" font-size="30pt">0</text>
<text transform="translate(500,89) rotate(0)" font-size="30pt">0.1</text>
<text transform="translate(1000,89) rotate(0)" font-size="30pt">0.2</text>
<text transform="translate(1500,89) rotate(0)" font-size="30pt">0.3</text>
<text transform="translate(2000,89) rotate(0)" font-size="30pt">0.4</text>
<text transform="translate(2500,89) rotate(0)" font-size="30pt">0.5</text>
<text transform="translate(3000,89) rotate(0)" font-size="30pt">0.6</text>
<text transform="translate(3500,89) rotate(0)" font-size="30pt">0.7</text>
<text transform="translate(4000,89) rotate(0)" font-size="30pt">0.8</text>
<text transform="translate(4500,89) rotate(0)" font-size="30pt">0.9</text>
<text transform="translate(5000,89) rotate(0)" font-size="30pt">1</text>
<text transform="translate(5500,89) rotate(0)" font-size="30pt">1.1</text>
<text transform="translate(6000,89) rotate(0)" font-size="30pt">1.2</text>
<text transform="translate(6500,89) rotate(0)" font-size="30pt">1.3</text>
<text transform="translate(7000,89) rotate(0)" font-size="30pt">1.4</text>
<text transform="translate(7500,89) rotate(0)" font-size="30pt">1.5</text>
<text transform="translate(8000,89) rotate(0)" font-size="30pt">1.6</text>
<text transform="translate(8500,89) rotate(0)" font-size="30pt">1.7</text>
<text transform="translate(9000,89) rotate(0)" font-size="30pt">1.8</text>
<text transform="translate(9500,89) rotate(0)" font-size="30pt">1.9</text>
<text transform="translate(10000,89) rotate(0)" font-size="30pt">2</text>
<text transform="translate(10500,89) rotate(0)" font-size="30pt">2.1</text>
<text transform="translate(11000,89) rotate(0)" font-size="30pt">2.2</text>
<text transform="translate(11500,89) rotate(0)" font-size="30pt">2.3</text>
<text transform="translate(12000,89) rotate(0)" font-size="30pt">2.4</text>
<text transform="translate(12500,89) rotate(0)" font-size="30pt">2.5</text>
<text transform="translate(13000,89) rotate(0)" font-size="30pt">2.6</text>
<text transform="translate(13500,89) rotate(0)" font-size="30pt">2.7</text>
<text transform="translate(14000,89) rotate(0)" font-size="30pt">2.8</text>
<text transform="translate(14500,89) rotate(0)" font-size="30pt">2.9</text>
<text transform="translate(15000,89) rotate(0)" font-size="30pt">3</text>
<text transform="translate(15500,89) rotate(0)" font-size="30pt">3.1</text>
<text transform="translate(16000,89) rotate(0)" font-size="30pt">3.2</text>
<text transform="translate(16500,89) rotate(0)" font-size="30pt">3.3</text>
<text transform="translate(17000,89) rotate(0)" font-size="30pt">3.4</text>
<text transform="translate(17500,89) rotate(0)" font-size="30pt">3.5</text>
<text transform="translate(18000,89) rotate(0)" font-size="30pt">3.6</text>
<text transform="translate(18500,89) rotate(0)" font-size="30pt">3.7</text>
</svg>
